<svg width="33" height="35" viewBox="0 0 33 35" fill="none" xmlns="http://www.w3.org/2000/svg">
<path d="M31.0154 0H1.29231C0.5775 0 0 0.625625 0 1.4V33.6C0 34.3744 0.5775 35 1.29231 35H31.0154C31.7302 35 32.3077 34.3744 32.3077 33.6V1.4C32.3077 0.625625 31.7302 0 31.0154 0ZM27.2838 10.2156H24.7033C22.68 10.2156 22.2883 11.2569 22.2883 12.7881V16.1612H27.1183L26.4883 21.4419H22.2883V35H17.2523V21.4463H13.0402V16.1612H17.2523V12.2675C17.2523 7.74812 19.8006 5.285 23.524 5.285C25.309 5.285 26.8396 5.42938 27.2879 5.495V10.2156H27.2838Z" fill="black" fill-opacity="0.7"/>
</svg>
