<svg width="1440" height="504" viewBox="0 0 1440 504" fill="none" xmlns="http://www.w3.org/2000/svg">
<path fill-rule="evenodd" clip-rule="evenodd" d="M1000.52 288.624H1045.73L1051.84 227.431H1006.62L1000.52 288.624Z" fill="#DCEEFF"/>
<path fill-rule="evenodd" clip-rule="evenodd" d="M1000.52 288.624H1045.73L1051.84 227.431H1006.62L1000.52 288.624Z" stroke="#686868" stroke-width="5"/>
<path fill-rule="evenodd" clip-rule="evenodd" d="M998.077 288.624H1044.13L1050.24 227.431H1004.18L998.077 288.624Z" fill="white"/>
<path fill-rule="evenodd" clip-rule="evenodd" d="M998.077 288.624H1044.13L1050.24 227.431H1004.18L998.077 288.624Z" stroke="#A78585" stroke-width="5"/>
<path fill-rule="evenodd" clip-rule="evenodd" d="M1006.9 280.544H1036.92L1041.42 235.511H1011.39L1006.9 280.544Z" fill="#A5C05B"/>
<path fill-rule="evenodd" clip-rule="evenodd" d="M971.493 276.82H969.459C959.974 276.82 952.286 269.106 952.286 259.59H988.666C988.666 269.106 980.977 276.82 971.493 276.82Z" fill="#A9A9A9"/>
<path fill-rule="evenodd" clip-rule="evenodd" d="M952.855 276.82C952.855 278.876 954.517 280.544 956.567 280.544H989.966V273.096H956.567C954.517 273.096 952.855 274.763 952.855 276.82Z" fill="#A78585"/>
<path fill-rule="evenodd" clip-rule="evenodd" d="M975.318 276.82C975.318 278.011 976.28 278.976 977.467 278.976H989.876C989.926 278.976 989.966 278.936 989.966 278.886V274.753C989.966 274.704 989.926 274.664 989.876 274.664H977.467C976.28 274.664 975.318 275.629 975.318 276.82Z" fill="#F4F4F4"/>
<path fill-rule="evenodd" clip-rule="evenodd" d="M948.193 280.544V287.993H984.648C986.698 287.993 988.36 286.325 988.36 284.268C988.36 282.212 986.698 280.544 984.648 280.544H948.193Z" fill="#A78585"/>
<path fill-rule="evenodd" clip-rule="evenodd" d="M948.193 282.133V286.404H963.182C964.358 286.404 965.31 285.447 965.31 284.268C965.31 283.089 964.358 282.133 963.182 282.133H948.193Z" fill="#F4F4F4"/>
<path fill-rule="evenodd" clip-rule="evenodd" d="M948.193 422.04H1047.96V319.024H948.193V422.04Z" fill="#C4C5C8"/>
<path fill-rule="evenodd" clip-rule="evenodd" d="M1041.54 422.04H1055.76V321.958H1041.54V422.04Z" fill="#AC8478"/>
<path fill-rule="evenodd" clip-rule="evenodd" d="M935.871 323.548H1055.76V296.872H935.871V323.548Z" fill="#AC8478"/>
<path fill-rule="evenodd" clip-rule="evenodd" d="M921.772 296.872H1071.39V287.73H921.772V296.872Z" fill="#CE957D"/>
<path fill-rule="evenodd" clip-rule="evenodd" d="M1055.76 422.04H1062.71V296.873H1055.76V422.04Z" fill="#CE957D"/>
<path fill-rule="evenodd" clip-rule="evenodd" d="M950.097 422.04H954.617V323.648H950.097V422.04Z" fill="#CE957D"/>
<path fill-rule="evenodd" clip-rule="evenodd" d="M1061.3 296.872H1075.67V287.73H1061.3V296.872Z" fill="#CE957D"/>
<path fill-rule="evenodd" clip-rule="evenodd" d="M935.871 422.04H950.098V318.902H935.871V422.04Z" fill="#AC8478"/>
<path fill-rule="evenodd" clip-rule="evenodd" d="M931.891 422.04H950.098V396.817H931.891V422.04Z" fill="#AC8478"/>
<path fill-rule="evenodd" clip-rule="evenodd" d="M1041.54 422.04H1059.9V396.817H1041.54V422.04Z" fill="#AC8478"/>
<path fill-rule="evenodd" clip-rule="evenodd" d="M979.884 418.15C979.884 418.15 963.506 408.517 983.242 380.49C983.242 380.49 993.402 392.392 997.314 378.29C997.314 378.29 1008.39 395.901 1001.2 406.537" fill="#FFECEC"/>
<path fill-rule="evenodd" clip-rule="evenodd" d="M1016.19 419.13C1016.19 419.13 1030.94 407.258 1019 383.362C1019 383.362 1001.88 401.696 997.557 367.717C997.557 367.717 985.057 393.372 992.91 405.684" fill="#FFECEC"/>
<path fill-rule="evenodd" clip-rule="evenodd" d="M976.009 422.04H1020.62V412.76H976.009V422.04Z" fill="#DCEEFF"/>
<path fill-rule="evenodd" clip-rule="evenodd" d="M1018.44 407.507L1015.38 398.795L978.865 412.754L981.926 421.466L1018.44 407.507Z" fill="#CE957D"/>
<path fill-rule="evenodd" clip-rule="evenodd" d="M1016.21 421.866L1019.42 412.153L983.708 399.336L980.505 409.048L1016.21 421.866Z" fill="#CE957D"/>
<path fill-rule="evenodd" clip-rule="evenodd" d="M1058.83 422.04H1066.8V396.817H1058.83V422.04Z" fill="#AC8478"/>
<path fill-rule="evenodd" clip-rule="evenodd" d="M964.842 419.986H976.112V343.972H964.842V419.986Z" stroke="#C1B9AC" stroke-width="5"/>
<path fill-rule="evenodd" clip-rule="evenodd" d="M976.111 419.986H987.381V343.972H976.111V419.986Z" stroke="#C1B9AC" stroke-width="5"/>
<path fill-rule="evenodd" clip-rule="evenodd" d="M987.381 419.986H998.652V343.972H987.381V419.986Z" stroke="#C1B9AC" stroke-width="5"/>
<path fill-rule="evenodd" clip-rule="evenodd" d="M998.652 419.986H1009.92V343.972H998.652V419.986Z" stroke="#C1B9AC" stroke-width="5"/>
<path fill-rule="evenodd" clip-rule="evenodd" d="M1009.92 419.986H1021.19V343.972H1009.92V419.986Z" stroke="#C1B9AC" stroke-width="5"/>
<path fill-rule="evenodd" clip-rule="evenodd" d="M1021.19 419.986H1032.46V343.972H1021.19V419.986Z" stroke="#C1B9AC" stroke-width="5"/>
<path fill-rule="evenodd" clip-rule="evenodd" d="M875.706 405.111V405.797C875.706 411.523 871.272 416.161 865.807 416.161H788.26C776.299 416.161 767.094 404.665 768.745 391.783L777.5 320.008C778.258 314.063 782.929 309.64 788.45 309.64H811.433C816.95 309.64 821.621 314.063 822.384 320.008L831.139 391.783C831.205 392.296 831.253 392.808 831.281 393.317L831.328 393.308C831.328 393.308 832.947 405.111 848 405.111H875.706Z" fill="#C69E93"/>
<path fill-rule="evenodd" clip-rule="evenodd" d="M793.152 497.011C793.152 500.674 790.189 503.642 786.535 503.642C782.88 503.642 779.917 500.674 779.917 497.011C779.917 493.353 782.88 490.384 786.535 490.384C790.189 490.384 793.152 493.353 793.152 497.011Z" fill="#C69E93"/>
<path fill-rule="evenodd" clip-rule="evenodd" d="M853.536 498.342H788.14C785.636 498.342 783.586 496.287 783.586 493.778C783.586 491.269 785.636 489.218 788.14 489.218H853.536C856.04 489.218 858.09 491.269 858.09 493.778C858.09 496.287 856.04 498.342 853.536 498.342Z" fill="#A88379"/>
<path fill-rule="evenodd" clip-rule="evenodd" d="M817.482 496.172H824.194V415.885H817.482V496.172Z" fill="#A88379"/>
<path fill-rule="evenodd" clip-rule="evenodd" d="M843.833 415.885L820.838 426.377L797.843 415.885H843.833Z" fill="#A88379"/>
<path fill-rule="evenodd" clip-rule="evenodd" d="M821.346 498.342H812.861C810.356 498.342 808.306 496.287 808.306 493.778C808.306 491.269 810.356 489.218 812.861 489.218H821.346C823.851 489.218 825.9 491.269 825.9 493.778C825.9 496.287 823.851 498.342 821.346 498.342Z" fill="#A88379"/>
<path fill-rule="evenodd" clip-rule="evenodd" d="M815.78 497.011C815.78 500.674 812.817 503.642 809.163 503.642C805.508 503.642 802.545 500.674 802.545 497.011C802.545 493.353 805.508 490.384 809.163 490.384C812.817 490.384 815.78 493.353 815.78 497.011Z" fill="#C69E93"/>
<path fill-rule="evenodd" clip-rule="evenodd" d="M862.196 497.011C862.196 500.674 859.234 503.642 855.579 503.642C851.924 503.642 848.962 500.674 848.962 497.011C848.962 493.353 851.924 490.384 855.579 490.384C859.234 490.384 862.196 493.353 862.196 497.011Z" fill="#C69E93"/>
<path fill-rule="evenodd" clip-rule="evenodd" d="M1324.89 251.589C1324.89 262.563 1312.07 271.459 1296.26 271.459C1280.45 271.459 1267.63 262.563 1267.63 251.589C1267.63 240.616 1280.45 231.72 1296.26 231.72C1312.07 231.72 1324.89 240.616 1324.89 251.589Z" fill="#A5C05B"/>
<path fill-rule="evenodd" clip-rule="evenodd" d="M1297.29 230.446C1298.1 236 1295.34 240.736 1295.34 240.736C1295.34 240.736 1291.25 236.469 1290.43 230.916C1289.62 225.362 1292.38 220.626 1292.38 220.626C1292.38 220.626 1296.47 224.893 1297.29 230.446Z" fill="#E8D1A9"/>
<path fill-rule="evenodd" clip-rule="evenodd" d="M1296.09 234.074C1299.74 239.07 1299.61 244.169 1299.61 244.169C1299.61 244.169 1293.57 241.169 1289.93 236.173C1286.29 231.177 1286.42 226.078 1286.42 226.078C1286.42 226.078 1292.45 229.079 1296.09 234.074Z" fill="#E8D1A9"/>
<path fill-rule="evenodd" clip-rule="evenodd" d="M1300.67 231.05C1299.7 236.592 1295.5 240.806 1295.5 240.806C1295.5 240.806 1292.86 236.034 1293.82 230.492C1294.79 224.951 1299 220.737 1299 220.737C1299 220.737 1301.64 225.508 1300.67 231.05Z" fill="#E8D1A9"/>
<path fill-rule="evenodd" clip-rule="evenodd" d="M1303.7 235.065C1300.66 240.243 1294.98 243.563 1294.98 243.563C1294.98 243.563 1294.26 238.486 1297.31 233.309C1300.36 228.13 1306.02 224.811 1306.02 224.811C1306.02 224.811 1306.75 229.887 1303.7 235.065Z" fill="#E8D1A9"/>
<path fill-rule="evenodd" clip-rule="evenodd" d="M1311.71 287.008H1280.81C1275.35 287.008 1270.92 282.575 1270.92 277.107C1270.92 271.639 1275.35 267.206 1280.81 267.206H1311.71C1317.17 267.206 1321.59 271.639 1321.59 277.107C1321.59 282.575 1317.17 287.008 1311.71 287.008Z" fill="#BC9755"/>
<path d="M1279.9 237.567L1274.62 233.447" stroke="#B6D4FF" stroke-width="9"/>
<path d="M1272.38 258.886L1267.63 262.162" stroke="#B6D4FF" stroke-width="9"/>
<path d="M1286.18 257.098L1294.38 258.438" stroke="#B6D4FF" stroke-width="9"/>
<path d="M1307.14 236.897L1312.09 230.771" stroke="#B6D4FF" stroke-width="9"/>
<path d="M1316.18 243.563L1321.59 240.093" stroke="#B6D4FF" stroke-width="9"/>
<path d="M1317.24 261.49L1322.38 264.813" stroke="#B6D4FF" stroke-width="9"/>
<path d="M1288.56 244.935L1286.11 239.233" stroke="#B6D4FF" stroke-width="9"/>
<path d="M1311.98 251.153L1306.1 253.96" stroke="#B6D4FF" stroke-width="9"/>
<path d="M1283.52 247.892L1277.92 244.159" stroke="#B6D4FF" stroke-width="9"/>
<path d="M1355.56 112.033V294.376" stroke="#AC8478" stroke-width="20"/>
<path d="M1141.82 113.523V292.749" stroke="#F5B69B" stroke-width="22"/>
<path d="M1249.87 117.918V293.372" stroke="#F5B69B" stroke-width="22"/>
<path fill-rule="evenodd" clip-rule="evenodd" d="M1130.07 294.376H1351.75V112.033H1130.07V294.376ZM1137.91 286.521H1343.9V119.887H1137.91V286.521Z" fill="#CE957D"/>
<path d="M1242.65 112.812V293.935" stroke="#CE957D" stroke-width="22"/>
<path d="M1130.07 203.204H1351.75" stroke="#CE957D" stroke-width="22"/>
<path fill-rule="evenodd" clip-rule="evenodd" d="M1143.03 126.74H1343.93V119.814H1143.03V126.74Z" fill="#B3D4FC"/>
<path fill-rule="evenodd" clip-rule="evenodd" d="M1143.03 138.992H1343.93V132.066H1143.03V138.992Z" fill="#B3D4FC"/>
<path fill-rule="evenodd" clip-rule="evenodd" d="M1143.03 151.245H1343.93V144.319H1143.03V151.245Z" fill="#B3D4FC"/>
<path fill-rule="evenodd" clip-rule="evenodd" d="M1143.03 163.497H1343.93V156.571H1143.03V163.497Z" fill="#B3D4FC"/>
<path fill-rule="evenodd" clip-rule="evenodd" d="M1143.03 175.749H1343.93V168.823H1143.03V175.749Z" fill="#B3D4FC"/>
<path fill-rule="evenodd" clip-rule="evenodd" d="M1011.79 72.6609C1011.79 88.8172 998.718 101.915 982.59 101.915C966.461 101.915 953.387 88.8172 953.387 72.6609C953.387 56.5043 966.461 43.4072 982.59 43.4072C998.718 43.4072 1011.79 56.5043 1011.79 72.6609Z" fill="#AC8478"/>
<path fill-rule="evenodd" clip-rule="evenodd" d="M1006.07 72.6609C1006.07 88.8172 992.992 101.915 976.863 101.915C960.735 101.915 947.661 88.8172 947.661 72.6609C947.661 56.5043 960.735 43.4072 976.863 43.4072C992.992 43.4072 1006.07 56.5043 1006.07 72.6609Z" fill="#D7A590"/>
<path fill-rule="evenodd" clip-rule="evenodd" d="M998.994 72.659C998.994 84.078 990.378 93.478 979.308 94.6963C978.504 94.7852 977.692 94.8294 976.866 94.8294C964.642 94.8294 954.734 84.9048 954.734 72.659C954.734 60.4177 964.642 50.4927 976.866 50.4927C977.692 50.4927 978.504 50.5373 979.308 50.6262C990.378 51.8445 998.994 61.2445 998.994 72.659Z" fill="#AC8478"/>
<path fill-rule="evenodd" clip-rule="evenodd" d="M998.994 72.6593C998.994 84.0783 990.378 93.4783 979.308 94.6966C968.232 93.4783 959.617 84.0783 959.617 72.6593C959.617 61.2448 968.232 51.8448 979.308 50.6265C990.378 51.8448 998.994 61.2448 998.994 72.6593Z" fill="#D7A590"/>
<path d="M977.824 60.333L984.994 75.999" stroke="#A78585" stroke-width="8"/>
<path d="M985.677 69.4316L969.97 86.5342" stroke="#A78585" stroke-width="8"/>
<path fill-rule="evenodd" clip-rule="evenodd" d="M745.973 112.012L748.979 142.079H788.44L785.435 112.012H745.973Z" fill="#DCEEFF"/>
<path fill-rule="evenodd" clip-rule="evenodd" d="M745.973 112.012L748.979 142.079H788.44L785.435 112.012H745.973Z" stroke="#DCEEFF" stroke-width="5"/>
<path fill-rule="evenodd" clip-rule="evenodd" d="M746.856 112.012L749.862 142.079H790.057L787.052 112.012H746.856Z" fill="white"/>
<path fill-rule="evenodd" clip-rule="evenodd" d="M746.856 112.012L749.862 142.079H790.057L787.052 112.012H746.856Z" stroke="#A78585" stroke-width="5"/>
<path fill-rule="evenodd" clip-rule="evenodd" d="M755.332 117.91L757.158 136.18H781.582L779.756 117.91H755.332Z" fill="#FA6775"/>
<path fill-rule="evenodd" clip-rule="evenodd" d="M829.088 142.895H823.725V121.911H829.088V142.895Z" fill="#9795E0"/>
<path fill-rule="evenodd" clip-rule="evenodd" d="M834.451 142.895H829.088V121.911H834.451V142.895Z" fill="#DFE182"/>
<path fill-rule="evenodd" clip-rule="evenodd" d="M823.724 142.895H818.362V121.911H823.724V142.895Z" fill="#C2D9F5"/>
<path fill-rule="evenodd" clip-rule="evenodd" d="M804.348 142.895H818.362V121.911H804.348C803.529 121.911 802.866 122.575 802.866 123.395V141.411C802.866 142.23 803.529 142.895 804.348 142.895Z" fill="#A4BFE7"/>
<path fill-rule="evenodd" clip-rule="evenodd" d="M816.065 127.045H805.162V124.967H816.065V127.045Z" fill="#F4F4F4"/>
<path fill-rule="evenodd" clip-rule="evenodd" d="M813.636 130.25H807.592V128.173H813.636V130.25Z" fill="#F4F4F4"/>
<path fill-rule="evenodd" clip-rule="evenodd" d="M859.427 148.039H737.178V142.895H859.427V148.039Z" fill="#D7A590"/>
<path fill-rule="evenodd" clip-rule="evenodd" d="M737.179 148.039H717.067V142.895H737.179V148.039Z" fill="#CE957D"/>
<path fill-rule="evenodd" clip-rule="evenodd" d="M829.632 148.039L820.085 163.042V148.039H829.632Z" fill="#AC8478"/>
<path fill-rule="evenodd" clip-rule="evenodd" d="M834.915 148.039L825.368 163.042H820.085L829.632 148.039H834.915Z" fill="#CE957D"/>
<path fill-rule="evenodd" clip-rule="evenodd" d="M759.613 148.039L750.066 163.042V148.039H759.613Z" fill="#AC8478"/>
<path fill-rule="evenodd" clip-rule="evenodd" d="M764.896 148.039L755.35 163.042H750.066L759.613 148.039H764.896Z" fill="#CE957D"/>
<path fill-rule="evenodd" clip-rule="evenodd" d="M801.208 207.39H773.335L769.571 169.723H797.444L801.208 207.39Z" fill="#DCEEFF"/>
<path fill-rule="evenodd" clip-rule="evenodd" d="M801.208 207.39H773.335L769.571 169.723H797.444L801.208 207.39Z" stroke="#DCEEFF" stroke-width="5"/>
<path fill-rule="evenodd" clip-rule="evenodd" d="M802.713 207.39H774.321L770.557 169.723H798.949L802.713 207.39Z" fill="white"/>
<path fill-rule="evenodd" clip-rule="evenodd" d="M802.713 207.39H774.321L770.557 169.723H798.949L802.713 207.39Z" stroke="#A78585" stroke-width="5"/>
<path fill-rule="evenodd" clip-rule="evenodd" d="M797.275 202.416H778.765L775.995 174.696H794.505L797.275 202.416Z" fill="#A5C05B"/>
<path fill-rule="evenodd" clip-rule="evenodd" d="M727.594 180.925L730.203 207.022H764.454L761.845 180.925H727.594Z" fill="#DCEEFF"/>
<path fill-rule="evenodd" clip-rule="evenodd" d="M727.594 180.925L730.203 207.022H764.454L761.845 180.925H727.594Z" stroke="#DCEEFF" stroke-width="5"/>
<path fill-rule="evenodd" clip-rule="evenodd" d="M728.36 180.925L730.968 207.022H765.857L763.248 180.925H728.36Z" fill="white"/>
<path fill-rule="evenodd" clip-rule="evenodd" d="M728.36 180.925L730.968 207.022H765.857L763.248 180.925H728.36Z" stroke="#A78585" stroke-width="5"/>
<path fill-rule="evenodd" clip-rule="evenodd" d="M735.716 186.045L737.301 201.903H758.501L756.916 186.045H735.716Z" fill="#FA6775"/>
<path fill-rule="evenodd" clip-rule="evenodd" d="M843.379 197.269C843.379 199.266 841.763 200.886 839.768 200.886H807.277V193.651H839.768C841.763 193.651 843.379 195.271 843.379 197.269Z" fill="#A5C05B"/>
<path fill-rule="evenodd" clip-rule="evenodd" d="M821.527 197.269C821.527 198.425 820.591 199.363 819.437 199.363H807.365C807.317 199.363 807.278 199.324 807.278 199.276V195.261C807.278 195.213 807.317 195.174 807.365 195.174H819.437C820.591 195.174 821.527 196.112 821.527 197.269Z" fill="#F4F4F4"/>
<path fill-rule="evenodd" clip-rule="evenodd" d="M847.914 200.886V208.12H812.451C810.457 208.12 808.84 206.501 808.84 204.503C808.84 202.505 810.457 200.886 812.451 200.886H847.914Z" fill="#FA6775"/>
<path fill-rule="evenodd" clip-rule="evenodd" d="M847.914 202.43V206.578H833.333C832.19 206.578 831.263 205.649 831.263 204.504C831.263 203.358 832.19 202.43 833.333 202.43H847.914Z" fill="#F4F4F4"/>
<path fill-rule="evenodd" clip-rule="evenodd" d="M859.427 212.927H737.178V207.783H859.427V212.927Z" fill="#D7A590"/>
<path fill-rule="evenodd" clip-rule="evenodd" d="M737.179 212.927H717.067V207.783H737.179V212.927Z" fill="#CE957D"/>
<path fill-rule="evenodd" clip-rule="evenodd" d="M829.632 212.927L820.085 227.93V212.927H829.632Z" fill="#AC8478"/>
<path fill-rule="evenodd" clip-rule="evenodd" d="M834.915 212.927L825.368 227.93H820.084L829.631 212.927H834.915Z" fill="#CE957D"/>
<path fill-rule="evenodd" clip-rule="evenodd" d="M759.613 212.927L750.066 227.93V212.927H759.613Z" fill="#AC8478"/>
<path fill-rule="evenodd" clip-rule="evenodd" d="M764.896 212.927L755.35 227.93H750.066L759.613 212.927H764.896Z" fill="#CE957D"/>
<path d="M813.146 259.785C797.584 261.959 804.104 279.913 808.478 289.606C813.612 300.985 809.115 308.614 809.115 308.614L785.061 300.059C793.889 288.812 784.139 282.549 786.539 269.139C788.692 257.11 800.379 251.683 807.763 251.939C811.448 252.067 814.465 253.018 816.853 254.237C816.943 254.283 817.03 254.333 817.113 254.385C821.475 249.898 827.513 247.216 834.491 247.216C848.843 247.216 861.737 258.558 861.737 273.619C861.737 288.68 850.103 300.889 835.751 300.889C821.4 300.889 809.766 288.68 809.766 273.619C809.766 268.472 810.978 263.759 813.146 259.785Z" fill="#19141E"/>
<path fill-rule="evenodd" clip-rule="evenodd" d="M838.29 301.609C838.29 301.609 832.953 301.767 830.679 300.523L838.006 305.131L838.29 301.609Z" fill="#CF3E83"/>
<path d="M858.184 281.461C857.384 287.664 855.308 296.404 850.183 299.818C847.463 301.629 842.511 301.852 838.289 301.608L837.323 313.617L823.548 307.937C823.548 307.937 824.872 294.683 825.447 289.603C822.677 287.089 817.96 285.923 817.952 281.653C817.952 280.173 818.814 277.614 822 277.606C826.276 277.601 825.665 282.736 825.665 282.736C826.195 282.942 826.726 282.93 827.255 282.74C831.489 282.564 843.264 280.788 851.27 267.084C852.205 271.698 854.147 277.447 858.184 281.461Z" fill="#DFB260"/>
<path fill-rule="evenodd" clip-rule="evenodd" d="M849.89 282.725L852.944 290.142L849.401 290.07L849.89 282.725Z" fill="#405FD3"/>
<path fill-rule="evenodd" clip-rule="evenodd" d="M846.639 283.046C846.563 284.528 845.693 285.682 844.696 285.624C843.699 285.567 842.952 284.319 843.029 282.838C843.105 281.356 843.975 280.202 844.972 280.259C845.969 280.317 846.715 281.565 846.639 283.046Z" fill="#0D0B6D"/>
<path fill-rule="evenodd" clip-rule="evenodd" d="M856.002 282.81C855.925 284.291 855.056 285.446 854.059 285.388C853.062 285.331 852.315 284.083 852.391 282.601C852.467 281.12 853.337 279.965 854.334 280.023C855.331 280.08 856.078 281.328 856.002 282.81Z" fill="#0D0B6D"/>
<path d="M848.532 293.622C848.532 293.622 846.224 294.369 843.91 291.792" stroke="#1C295E" stroke-width="3"/>
<path opacity="0.402786" fill-rule="evenodd" clip-rule="evenodd" d="M838.281 301.609C838.281 301.609 832.945 301.767 830.67 300.522L837.997 305.131L838.281 301.609Z" fill="black"/>
<path fill-rule="evenodd" clip-rule="evenodd" d="M816.839 369.042L813.987 369.001C813.987 369.001 813.991 368.955 813.995 368.86C814.977 368.93 815.926 368.988 816.839 369.042Z" fill="#C83820"/>
<path d="M874.945 399.998L865.531 401.179L850.369 377.425L849.816 369.53L826.718 369.187L816.859 369.042H816.838C815.926 368.988 814.977 368.93 813.995 368.86C801.577 367.992 784.372 365.573 783.192 358.876C781.05 346.747 797.252 323.208 799.167 320.479C799.287 320.31 799.348 320.219 799.348 320.219C802.064 316.333 804.796 313.311 807.346 311.703C812.307 308.573 816.958 307.887 821.378 307.899L822.562 299.305L840.593 301.797L839.611 308.941C844.905 309.45 848.508 310.487 851.879 313.587C862.705 323.543 863.501 360.827 863.501 360.827L874.945 399.998Z" fill="#BC9755"/>
<path fill-rule="evenodd" clip-rule="evenodd" d="M826.718 369.187V369.352C826.718 369.352 822.583 369.36 816.859 369.042L826.718 369.187Z" fill="#C83820"/>
<path opacity="0.201149" d="M849.484 369.434C850.808 352.591 859.972 349.029 853.369 330.14" stroke="black" stroke-width="3"/>
<path fill-rule="evenodd" clip-rule="evenodd" d="M865.074 390.271L830.64 386.295C829.513 386.165 828.77 385.054 829.079 383.96L842.685 335.808C842.931 334.938 843.77 334.375 844.667 334.478L879.101 338.454C880.229 338.584 880.972 339.695 880.662 340.789L867.057 388.941C866.811 389.811 865.971 390.374 865.074 390.271Z" fill="#18181C"/>
<path d="M834.497 372.277C834.563 372.294 834.629 372.312 834.696 372.331C837.088 372.985 839.533 373.381 842.934 372.932C845.122 372.645 847.003 372.271 846.982 371.921C846.921 371.038 845.86 370.84 845.86 370.84L843.817 370.939L841.852 370.822C841.852 370.822 850.88 369.111 850.88 368.846C850.852 367.913 849.37 367.535 849.37 367.535C849.37 367.535 852.475 367.04 852.439 366.545C852.355 365.287 850.969 365.192 850.969 365.192C850.969 365.192 851.353 364.859 851.314 364.552C851.163 363.311 848.954 363.106 847.902 362.954C847.902 362.954 844.325 362.905 843.259 362.64C840.457 361.939 838.789 361.313 837.743 360.79L844.735 336.045C844.981 335.175 845.82 334.611 846.717 334.715L881.151 338.691C882.279 338.821 883.022 339.932 882.712 341.025L869.107 389.177C868.861 390.048 868.021 390.611 867.124 390.508L832.69 386.532C831.563 386.401 830.82 385.291 831.129 384.197L834.497 372.277Z" fill="#FCBDA4"/>
<path fill-rule="evenodd" clip-rule="evenodd" d="M850.88 368.846C850.852 367.913 849.37 367.535 849.37 367.535C849.37 367.535 852.475 367.04 852.439 366.545C852.355 365.287 850.969 365.192 850.969 365.192C850.969 365.192 851.353 364.859 851.314 364.552C851.174 363.403 849.269 363.142 848.153 362.989C848.064 362.977 847.98 362.966 847.902 362.954C847.902 362.954 844.325 362.905 843.259 362.64C837.945 361.311 836.71 360.251 836.058 359.653C836.038 359.635 836.019 359.617 836 359.6C835.946 359.55 835.896 359.504 835.846 359.463C835.883 359.423 835.924 359.356 835.968 359.287C836.029 359.189 836.094 359.086 836.154 359.042L837.062 355.709C836.397 355.781 835.747 355.804 835.103 355.826C834.199 355.857 833.307 355.888 832.403 356.055C829.936 356.511 828.476 357.084 828.476 357.084L825.328 358.162L823.046 366.623C823.91 367.393 825.981 368.913 827.386 369.68C830.098 371.16 831.292 371.461 833.125 371.923C833.434 372.001 833.76 372.083 834.114 372.176C834.154 372.186 834.194 372.197 834.235 372.208C834.385 372.247 834.538 372.287 834.696 372.331C837.088 372.985 839.533 373.381 842.934 372.932C845.122 372.645 847.003 372.271 846.982 371.921C846.921 371.038 845.859 370.84 845.859 370.84L843.817 370.938L841.851 370.822C841.851 370.822 850.88 369.111 850.88 368.846ZM879.965 406.496C879.581 405.741 876.945 402.57 874.781 400.018L865.771 401.149C864.739 407.246 869.026 415.959 869.026 415.959C869.026 415.959 866.796 414.595 866.352 415.785C866.155 416.319 865.707 420.552 874.06 420.837C874.947 420.87 877.08 419.064 877.08 419.064C877.08 419.064 875.525 422.036 877.907 422.623C877.907 422.623 881.745 416.86 881.804 415.579C881.863 414.297 880.631 407.807 879.965 406.496Z" fill="#DFB260"/>
<path opacity="0.148065" d="M870.731 404.331C870.731 404.331 871.904 408.766 875.926 410.148C877.333 410.631 876.982 416.335 880.429 415.653" stroke="black" stroke-width="3"/>
<path fill-rule="evenodd" clip-rule="evenodd" d="M848.233 339.201C847.962 340.054 847.383 340.632 846.94 340.491C846.498 340.35 846.359 339.543 846.63 338.69C846.901 337.836 847.479 337.259 847.922 337.4C848.365 337.541 848.504 338.347 848.233 339.201Z" fill="#020101"/>
<path opacity="0.200498" d="M813.548 333.479L804.857 347.896L826.467 356.461" stroke="black" stroke-width="3"/>
<path fill-rule="evenodd" clip-rule="evenodd" d="M941.901 446.489L937.646 438.101L927.406 439.647L941.335 462.521L971.886 442.206C961.371 439.858 941.901 446.489 941.901 446.489ZM894.058 490.703L895.123 481.393L885.766 477.04L884.383 503.712L921.326 503.65C913.876 495.907 894.058 490.703 894.058 490.703Z" fill="#0D0B6D"/>
<path fill-rule="evenodd" clip-rule="evenodd" d="M938.724 439.292L928.346 441.462L934.322 451.065L942.927 445.811L938.724 439.292ZM895.135 483.29L885.319 479.383L885.017 490.653L895.051 491.021L895.135 483.29Z" fill="#DFB260"/>
<path d="M909.968 430.395L904.888 485.634H881.357L882.401 405.43L837.486 405.74C824.673 405.739 812.28 394.716 813.168 381.905L814.565 368.862L883.157 348.563C895.855 345.687 900.257 349.487 908.49 364.167L944.838 438.804L924.87 452.169L909.968 430.395Z" fill="#2F2F3D"/>
<path opacity="0.150484" fill-rule="evenodd" clip-rule="evenodd" d="M888.888 373.612L837.486 405.74L882.401 405.429L881.357 485.634H904.888L912.955 397.918C914.946 381.958 904.974 373.612 888.888 373.612Z" fill="#18181C"/>
<path fill-rule="evenodd" clip-rule="evenodd" d="M1164.81 417.902C1170.29 417.902 1174.73 424.322 1174.73 432.243C1174.73 440.164 1170.29 446.584 1164.81 446.584C1159.33 446.584 1154.9 440.164 1154.9 432.243C1154.9 424.322 1159.33 417.902 1164.81 417.902Z" fill="#202128"/>
<path d="M1164.75 432.991V274.315" stroke="#202128" stroke-width="20"/>
<path fill-rule="evenodd" clip-rule="evenodd" d="M1235.08 352.504H1156.52V270.957H1235.08V352.504Z" fill="#3D3E44"/>
<path d="M1235.61 432.991V274.315L1264.57 283.068" stroke="#202128" stroke-width="20" stroke-linejoin="round"/>
<path d="M1199.14 388.254L1130.49 476.229" stroke="#202128" stroke-width="7"/>
<path d="M1130.49 388.254L1199.14 476.229" stroke="#202128" stroke-width="7"/>
<path d="M1206.03 432.243H1123.59" stroke="#202128" stroke-width="7"/>
<path d="M1164.81 368.144V496.341" stroke="#202128" stroke-width="7"/>
<path fill-rule="evenodd" clip-rule="evenodd" d="M1164.75 362.392C1191.7 362.392 1213.55 394 1213.55 432.991C1213.55 471.983 1191.7 503.588 1164.75 503.588C1137.8 503.588 1115.94 471.983 1115.94 432.991C1115.94 394 1137.8 362.392 1164.75 362.392ZM1164.75 373.449C1155.47 373.449 1146.46 379.094 1139.38 389.343C1135.57 394.852 1132.56 401.333 1130.43 408.604C1128.18 416.302 1127.04 424.508 1127.04 432.991C1127.04 441.474 1128.18 449.68 1130.43 457.378C1132.56 464.65 1135.57 471.132 1139.38 476.638C1146.46 486.887 1155.47 492.534 1164.75 492.534C1174.03 492.534 1183.03 486.887 1190.12 476.638C1193.93 471.132 1196.94 464.65 1199.06 457.378C1201.32 449.68 1202.46 441.474 1202.46 432.991C1202.46 424.508 1201.32 416.302 1199.06 408.604C1196.94 401.333 1193.93 394.852 1190.12 389.343C1183.03 379.094 1174.03 373.449 1164.75 373.449Z" fill="#868B9B"/>
<path d="M1235.67 368.144V496.341" stroke="#202128" stroke-width="7"/>
<path d="M1101.81 466.469V349.411" stroke="#202128" stroke-width="20"/>
<path fill-rule="evenodd" clip-rule="evenodd" d="M1099.97 461.954C1107.92 461.954 1114.36 471.272 1114.36 482.773C1114.36 494.27 1107.92 503.588 1099.97 503.588C1092.02 503.588 1085.57 494.27 1085.57 482.773C1085.57 471.272 1092.02 461.954 1099.97 461.954ZM1099.97 471.037C1098.44 471.037 1094.69 475.15 1094.69 482.773C1094.69 490.396 1098.44 494.506 1099.97 494.506C1101.5 494.506 1105.24 490.396 1105.24 482.773C1105.24 475.15 1101.5 471.037 1099.97 471.037Z" fill="#202128"/>
<path fill-rule="evenodd" clip-rule="evenodd" d="M1216.47 393.844H1101.81V376.105H1216.47V393.844Z" fill="#202128"/>
<path fill-rule="evenodd" clip-rule="evenodd" d="M1233.91 393.844H1171.75V376.105H1233.91V393.844Z" fill="#3D3E44"/>
<path fill-rule="evenodd" clip-rule="evenodd" d="M1077.98 465.348L1077.87 454.959L1090.45 448.208L1092.27 477.912H1048.7C1056.12 469.015 1077.98 465.348 1077.98 465.348ZM1131.9 464.935L1131.78 452.578L1145.36 451.892L1146.6 464.253L1149.76 477.812H1118.18C1122.15 466.295 1131.9 464.935 1131.9 464.935Z" fill="#0D0B6D"/>
<path fill-rule="evenodd" clip-rule="evenodd" d="M1131.78 452.578L1145.1 448.316L1146.6 464.253L1131.9 464.935L1131.78 452.578ZM1077.87 454.959L1090.45 450.933L1091.46 464.703L1077.98 465.348L1077.87 454.959Z" fill="#E576C6"/>
<path fill-rule="evenodd" clip-rule="evenodd" d="M1153.7 487.631H1045.39V477.912H1153.7V487.631Z" fill="#202128"/>
<path fill-rule="evenodd" clip-rule="evenodd" d="M1157.98 487.631H1121.73V477.912H1157.98V487.631Z" fill="#3D3E44"/>
<path fill-rule="evenodd" clip-rule="evenodd" d="M1235.61 362.392C1262.56 362.392 1284.42 394 1284.42 432.991C1284.42 471.983 1262.56 503.588 1235.61 503.588C1208.66 503.588 1186.81 471.983 1186.81 432.991C1186.81 394 1208.66 362.392 1235.61 362.392ZM1235.61 373.449C1226.33 373.449 1217.32 379.094 1210.24 389.343C1206.43 394.852 1203.42 401.333 1201.3 408.604C1199.04 416.302 1197.9 424.508 1197.9 432.991C1197.9 441.474 1199.04 449.68 1201.3 457.378C1203.42 464.65 1206.43 471.132 1210.24 476.638C1217.32 486.887 1226.33 492.534 1235.61 492.534C1244.89 492.534 1253.9 486.887 1260.98 476.638C1264.79 471.132 1267.8 464.65 1269.93 457.378C1272.18 449.68 1273.32 441.474 1273.32 432.991C1273.32 424.508 1272.18 416.302 1269.93 408.604C1267.8 401.333 1264.79 394.852 1260.98 389.343C1253.9 379.094 1244.89 373.449 1235.61 373.449Z" fill="#BFC4D6"/>
<path d="M1175.84 466.469L1175.96 377.383" stroke="#3D3E44" stroke-width="20"/>
<path fill-rule="evenodd" clip-rule="evenodd" d="M1170.83 461.954C1178.78 461.954 1185.22 471.272 1185.22 482.773C1185.22 494.27 1178.78 503.588 1170.83 503.588C1162.88 503.588 1156.44 494.27 1156.44 482.773C1156.44 471.272 1162.88 461.954 1170.83 461.954ZM1170.83 471.037C1169.3 471.037 1165.55 475.15 1165.55 482.773C1165.55 490.396 1169.3 494.506 1170.83 494.506C1172.36 494.506 1176.11 490.396 1176.11 482.773C1176.11 475.15 1172.36 471.037 1170.83 471.037Z" fill="#3D3E44"/>
<path fill-rule="evenodd" clip-rule="evenodd" d="M1236.04 417.431C1241.52 417.431 1245.95 423.851 1245.95 431.772C1245.95 439.693 1241.52 446.113 1236.04 446.113C1230.56 446.113 1226.13 439.693 1226.13 431.772C1226.13 423.851 1230.56 417.431 1236.04 417.431Z" fill="#202128"/>
<path d="M1265.64 393.844L1206.45 469.701" stroke="#202128" stroke-width="7"/>
<path d="M1206.88 395.342L1266.73 472.037" stroke="#202128" stroke-width="7"/>
<path d="M1275.37 432.243H1198.14" stroke="#202128" stroke-width="7"/>
<path d="M1117.11 377.383L1125.62 459.346H1148.53L1144.65 377.383H1172.79C1185.09 377.383 1195.06 367.554 1195.06 355.43V345.673H1162.18H1086.22C1070.29 345.673 1057.97 359.555 1059.94 375.275L1070.94 459.346H1094.24L1093.17 377.383H1117.11Z" fill="#19141E"/>
<path fill-rule="evenodd" clip-rule="evenodd" d="M1195.06 345.673H1133.17C1122.84 345.673 1114.76 354.455 1115.77 364.586L1125.62 459.346H1148.53L1144.65 377.383H1172.79C1185.09 377.383 1195.06 367.554 1195.06 355.43V345.673Z" fill="white" fill-opacity="0.1"/>
<path fill-rule="evenodd" clip-rule="evenodd" d="M1140.77 227.901C1140.77 227.901 1130.3 241.604 1144.52 245.242L1140.77 227.901Z" fill="#19141E"/>
<path d="M1160.27 275.007L1160.62 262.925C1160.62 262.925 1145.64 264.094 1142.52 262.462C1142.52 262.462 1140.14 247.781 1142.4 237.371L1154.7 226.213L1174.55 227.681L1176.8 245.731C1177.84 242.653 1187.3 238.794 1189.57 245.7C1192.5 254.605 1175.63 259.284 1175.63 259.284L1177.39 275.153" fill="#FA6775"/>
<path d="M1183.68 226.993L1188.54 222.019L1185.89 219.416L1181.45 223.959L1181.02 223.751L1182.16 217.351L1178.51 216.695L1177.59 221.824C1168.73 216.394 1161.74 220.626 1161.74 220.626C1161.74 220.626 1158.92 208.735 1151.11 208.77C1139.98 208.818 1138.27 226.091 1138.27 226.091C1138.27 226.091 1132.66 216.697 1129.47 218.04C1126.28 219.383 1126.19 250.585 1170.47 235.379C1170.47 235.379 1166.66 243.984 1176.8 245.731C1176.8 245.731 1178.57 242.059 1184.57 241.851C1184.57 241.851 1193.79 238.082 1183.68 226.993Z" fill="#19141E"/>
<path opacity="0.4" fill-rule="evenodd" clip-rule="evenodd" d="M1160.62 262.924L1170.48 260.801L1160.67 267.457L1160.62 262.924Z" fill="black"/>
<path fill-rule="evenodd" clip-rule="evenodd" d="M1152.31 244.744L1148.9 253.109L1152.98 253.161L1152.31 244.744Z" fill="#125475"/>
<path fill-rule="evenodd" clip-rule="evenodd" d="M1156.38 245.557C1156.17 246.683 1156.92 247.761 1158.04 247.965C1159.16 248.169 1160.23 247.421 1160.44 246.295C1160.64 245.168 1159.89 244.09 1158.77 243.887C1157.65 243.683 1156.58 244.431 1156.38 245.557Z" fill="#0D0B6D"/>
<path fill-rule="evenodd" clip-rule="evenodd" d="M1145.67 245.557C1145.46 246.683 1146.21 247.761 1147.33 247.965C1148.45 248.169 1149.52 247.421 1149.73 246.295C1149.93 245.168 1149.19 244.09 1148.06 243.887C1146.94 243.683 1145.87 244.431 1145.67 245.557Z" fill="#0D0B6D"/>
<path fill-rule="evenodd" clip-rule="evenodd" d="M1157.58 254.481C1157.58 254.481 1156.27 256.873 1153.44 256.816L1157.58 254.481Z" fill="white"/>
<path d="M1157.58 254.481C1157.58 254.481 1156.27 256.873 1153.44 256.816" stroke="#252535" stroke-width="4"/>
<path fill-rule="evenodd" clip-rule="evenodd" d="M1226.16 318.418C1225.24 330.795 1214.74 336.912 1206.55 339.818L1207.19 343.233C1208.18 348.546 1203.74 353.405 1197.89 353.405H1144.3C1138.55 353.405 1134.14 348.714 1134.96 343.473L1135.49 340.089C1127.02 337.319 1115.27 331.561 1115.57 320.971C1116.03 304.6 1134.03 289.199 1143.61 282.147C1147.07 278.411 1152.04 276.931 1159.18 274.802C1159.99 274.561 1160.83 274.312 1161.69 274.051C1161.69 274.051 1184.68 270.319 1196.32 275.756C1199.38 277.182 1201.89 279.219 1203.95 281.531C1213.43 289.182 1227.3 303.106 1226.16 318.418Z" fill="#FA6775"/>
<path opacity="0.199009" d="M1142.8 307.638L1143.73 308.083L1143.14 309.339L1142.11 308.402L1142.8 307.638ZM1149.09 294.435L1148.17 293.989L1148.61 293.057L1149.54 293.502L1149.09 294.435ZM1150.96 295.325L1151.4 294.393L1152.33 294.838L1151.89 295.771L1150.96 295.325ZM1144.06 309.784L1143.14 309.339L1144.06 309.784ZM1143.47 311.04L1144.4 311.485L1143.8 312.74L1142.77 311.804L1143.47 311.04ZM1142.44 310.103L1143.14 309.339L1142.44 310.103ZM1140.64 308.462L1139.95 309.226L1139.18 308.53L1139.88 307.766L1140.64 308.462ZM1142.03 306.933L1141.27 306.237L1141.96 305.473L1142.72 306.169L1142.03 306.933ZM1142.2 308.893L1141.27 308.448L1142.2 308.893ZM1142.8 307.638L1141.87 307.192L1142.47 305.937L1143.5 306.873L1142.8 307.638ZM1142.13 309.048L1141.69 309.98L1140.75 309.535L1141.2 308.602L1142.13 309.048ZM1143.02 309.471L1143.46 308.538L1144.71 309.138L1143.78 310.167L1143.02 309.471ZM1142.44 310.103L1141.74 310.867L1140.98 310.171L1141.68 309.407L1142.44 310.103ZM1149.33 316.389L1150.09 317.085L1149.4 317.849L1148.64 317.153L1149.33 316.389ZM1150.72 314.86L1151.41 314.096L1152.18 314.792L1151.48 315.556L1150.72 314.86ZM1143.83 308.575L1144.52 307.81L1143.83 308.575ZM1192.67 308.232L1191.74 308.693L1192.67 308.232ZM1184.47 291.763L1183.55 292.224L1183.09 291.299L1184.01 290.838L1184.47 291.763ZM1193.12 309.156L1193.58 310.081L1192.66 310.541L1192.2 309.617L1193.12 309.156ZM1194.05 308.697L1193.59 307.771L1194.05 308.697ZM1198.69 306.39L1199.61 305.93L1200.07 306.856L1199.15 307.316L1198.69 306.39ZM1197.77 304.539L1197.31 303.613L1198.23 303.154L1198.69 304.079L1197.77 304.539ZM1194.05 306.387L1194.51 307.312L1193.59 307.771L1193.13 306.848L1194.05 306.387ZM1186.32 290.841L1185.86 289.916L1186.78 289.455L1187.24 290.38L1186.32 290.841ZM1193.13 306.846L1193.59 307.771L1193.13 306.846ZM1194.05 306.387L1193.59 305.461L1194.52 305.002L1194.98 305.926L1194.05 306.387ZM1177.34 314.699L1176.41 315.158L1175.96 314.233L1176.88 313.773L1177.34 314.699ZM1178.26 316.55L1178.72 317.476L1177.79 317.936L1177.33 317.01L1178.26 316.55ZM1194.05 308.697L1194.97 308.237L1195.43 309.163L1194.51 309.623L1194.05 308.697ZM1194 308.606L1193.08 309.066L1192.62 308.141L1193.54 307.681L1194 308.606ZM1194.93 308.144L1195.85 307.683L1196.31 308.609L1195.39 309.069L1194.93 308.144ZM1194.51 307.31L1195.44 306.849L1194.51 307.31ZM1141.87 307.192L1148.17 293.989L1150.03 294.88L1143.73 308.083L1141.87 307.192ZM1149.54 293.502L1151.4 294.393L1150.51 296.258L1148.65 295.368L1149.54 293.502ZM1151.89 295.771L1145 310.229L1143.14 309.339L1150.03 294.88L1151.89 295.771ZM1145 310.229L1144.4 311.485L1142.54 310.594L1143.14 309.339L1145 310.229ZM1142.77 311.804L1141.74 310.867L1143.14 309.339L1144.16 310.275L1142.77 311.804ZM1141.74 310.867L1139.95 309.226L1141.34 307.697L1143.14 309.339L1141.74 310.867ZM1139.88 307.766L1141.27 306.237L1142.79 307.629L1141.4 309.158L1139.88 307.766ZM1142.72 306.169L1143.5 306.873L1142.11 308.402L1141.34 307.697L1142.72 306.169ZM1141.27 308.448L1141.87 307.192L1143.73 308.083L1143.14 309.339L1141.27 308.448ZM1141.2 308.602L1141.27 308.448L1143.14 309.339L1143.06 309.493L1141.2 308.602ZM1142.57 310.403L1141.69 309.98L1142.57 308.115L1143.46 308.538L1142.57 310.403ZM1141.68 309.407L1142.25 308.775L1143.78 310.167L1143.2 310.799L1141.68 309.407ZM1148.64 317.153L1141.74 310.867L1143.14 309.339L1150.03 315.625L1148.64 317.153ZM1151.48 315.556L1150.09 317.085L1148.57 315.693L1149.96 314.165L1151.48 315.556ZM1144.52 307.81L1151.41 314.096L1150.03 315.625L1143.14 309.339L1144.52 307.81ZM1143.5 306.873L1144.52 307.81L1143.14 309.339L1142.11 308.402L1143.5 306.873ZM1191.74 308.693L1183.55 292.224L1185.39 291.302L1193.59 307.771L1191.74 308.693ZM1192.2 309.617L1191.74 308.693L1193.59 307.771L1194.05 308.695L1192.2 309.617ZM1194.51 309.623L1193.58 310.081L1192.67 308.23L1193.59 307.771L1194.51 309.623ZM1199.15 307.316L1194.51 309.623L1193.59 307.771L1198.23 305.465L1199.15 307.316ZM1198.69 304.079L1199.61 305.93L1197.76 306.85L1196.84 304.998L1198.69 304.079ZM1193.59 305.461L1197.31 303.613L1198.23 305.465L1194.51 307.312L1193.59 305.461ZM1187.24 290.38L1194.98 305.926L1193.13 306.848L1185.39 291.302L1187.24 290.38ZM1184.01 290.838L1185.86 289.916L1186.78 291.766L1184.93 292.688L1184.01 290.838ZM1192.67 305.92L1193.59 305.461L1194.51 307.312L1193.59 307.771L1192.67 305.92ZM1176.88 313.773L1192.67 305.92L1193.59 307.771L1177.8 315.625L1176.88 313.773ZM1177.33 317.01L1176.41 315.158L1178.26 314.239L1179.18 316.091L1177.33 317.01ZM1194.51 309.623L1178.72 317.476L1177.8 315.625L1193.59 307.771L1194.51 309.623ZM1194.93 308.146L1194.97 308.237L1193.12 309.157L1193.08 309.066L1194.93 308.146ZM1195.39 309.069L1194.46 309.531L1193.54 307.681L1194.47 307.219L1195.39 309.069ZM1195.44 306.849L1195.85 307.683L1194 308.606L1193.59 307.771L1195.44 306.849ZM1194.98 305.926L1195.44 306.849L1193.59 307.771L1193.13 306.848L1194.98 305.926Z" fill="black"/>
<path opacity="0.203218" fill-rule="evenodd" clip-rule="evenodd" d="M1163.57 289.51C1163.57 290.93 1164.73 292.081 1166.16 292.081C1167.58 292.081 1168.74 290.93 1168.74 289.51C1168.74 288.09 1166.16 284.473 1166.16 284.473C1166.16 284.473 1163.57 288.09 1163.57 289.51Z" fill="black"/>
<path opacity="0.195964" d="M1188.63 340.714C1188.63 340.714 1177.85 340.569 1177.8 314.16" stroke="black" stroke-width="5"/>
<path opacity="0.199009" d="M1141.34 339.481C1141.34 339.481 1149.54 339.349 1149.59 315.233" stroke="black" stroke-width="5"/>
<path opacity="0.203497" d="M1165.6 292.082C1164.01 303.558 1159.75 314.571 1162.5 353.391" stroke="black" stroke-width="3"/>
<path fill-rule="evenodd" clip-rule="evenodd" d="M1199.75 277.255C1199.75 277.255 1196.99 263.666 1179.36 263.701C1171.09 263.717 1169.36 268.288 1169.85 273.137C1169.87 273.276 1170.39 273.205 1170.72 273.16C1170.79 273.15 1170.85 273.142 1170.89 273.137C1172.15 273.006 1172.63 272.978 1173.43 272.935C1173.58 272.926 1173.73 272.918 1173.91 272.907C1173.94 272.906 1173.97 272.904 1174 272.902L1166.39 281.285L1161.49 268.382L1151.62 276.835L1166.58 286.286C1166.58 286.286 1182.18 276.478 1187.31 273.427L1199.75 277.255ZM1141.34 346.9H1162.68H1188.56L1188.15 340.882C1181.66 338.595 1177.98 330.781 1178.09 314.16L1163.27 314.378L1150.16 314.571C1150.03 329.112 1147.37 335.687 1141.75 340.471L1141.34 346.9Z" fill="#F3EBDD"/>
<path opacity="0.201474" d="M1165.6 292.082C1163.88 302.497 1159.72 314.474 1162.47 353.295" stroke="black" stroke-width="3"/>
<path fill-rule="evenodd" clip-rule="evenodd" d="M420.453 458.005H209.076V407.958H420.453V458.005Z" fill="#FFB6B6"/>
<path fill-rule="evenodd" clip-rule="evenodd" d="M361.152 418.549H208.76C200.828 418.549 194.208 412.494 193.505 404.596L188.739 351.052C187.942 342.097 195 334.386 203.994 334.386H356.386C364.319 334.386 370.938 340.44 371.641 348.339L376.406 401.883C377.203 410.838 370.146 418.549 361.152 418.549Z" fill="#FFB6B6"/>
<path fill-rule="evenodd" clip-rule="evenodd" d="M486.583 482.32H427.272C418.499 482.32 411.606 474.811 412.36 466.073L417.27 409.145C417.937 401.409 424.414 395.469 432.181 395.469H491.493C500.266 395.469 507.158 402.978 506.405 411.715L501.494 468.644C500.827 476.38 494.351 482.32 486.583 482.32Z" fill="#FFB6B6"/>
<path fill-rule="evenodd" clip-rule="evenodd" d="M407.002 418.549H237.703C229.771 418.549 223.151 412.494 222.448 404.596L217.683 351.052C216.886 342.097 223.943 334.386 232.937 334.386H402.236C410.169 334.386 416.788 340.44 417.491 348.339L422.257 401.883C423.053 410.838 415.996 418.549 407.002 418.549Z" fill="#FFDCDC"/>
<path fill-rule="evenodd" clip-rule="evenodd" d="M480.321 482.32H221.804V456.111H480.321V482.32Z" fill="#FFCCCC"/>
<path fill-rule="evenodd" clip-rule="evenodd" d="M445.027 456.111H263.142C254.108 456.111 246.785 448.791 246.785 439.761C246.785 430.731 254.108 423.411 263.142 423.411H445.027C454.059 423.411 461.382 430.731 461.382 439.761C461.382 448.791 454.059 456.111 445.027 456.111Z" fill="#FFDCDC"/>
<path fill-rule="evenodd" clip-rule="evenodd" d="M172.677 503.555H166.473L169.095 482.32H180.542L172.677 503.555Z" fill="#FFB6B6"/>
<path fill-rule="evenodd" clip-rule="evenodd" d="M225.994 503.555H219.791L222.413 482.32H233.859L225.994 503.555Z" fill="#FFB6B6"/>
<path fill-rule="evenodd" clip-rule="evenodd" d="M479.341 503.555H485.545L482.923 482.32H471.476L479.341 503.555Z" fill="#FFB6B6"/>
<path fill-rule="evenodd" clip-rule="evenodd" d="M426.023 503.555H432.227L429.605 482.32H418.158L426.023 503.555Z" fill="#FFB6B6"/>
<path fill-rule="evenodd" clip-rule="evenodd" d="M486.583 482.32H477.696C468.922 482.32 462.03 474.811 462.784 466.073L467.693 409.145C468.361 401.409 474.837 395.469 482.605 395.469H491.493C500.266 395.469 507.158 402.978 506.405 411.715L501.494 468.644C500.827 476.38 494.351 482.32 486.583 482.32Z" fill="#FFCCCC"/>
<path fill-rule="evenodd" clip-rule="evenodd" d="M230.473 482.32H163.671C155.903 482.32 149.426 476.38 148.759 468.644L143.849 411.715C143.096 402.978 149.987 395.469 158.761 395.469H225.563C233.33 395.469 239.807 401.409 240.474 409.145L245.384 466.073C246.138 474.811 239.246 482.32 230.473 482.32Z" fill="#FFB6B6"/>
<path fill-rule="evenodd" clip-rule="evenodd" d="M230.473 482.32H221.585C213.817 482.32 207.341 476.38 206.673 468.644L201.764 411.715C201.01 402.978 207.902 395.469 216.675 395.469H225.563C233.33 395.469 239.807 401.409 240.474 409.145L245.384 466.073C246.138 474.811 239.246 482.32 230.473 482.32Z" fill="#FFCCCC"/>
<path fill-rule="evenodd" clip-rule="evenodd" d="M107.078 367.742C107.078 367.742 80.3032 426.831 77.1062 491.077C77.1062 491.077 92.092 425.971 107.078 367.742Z" fill="#88A550"/>
<path fill-rule="evenodd" clip-rule="evenodd" d="M59.1719 413.151C59.1719 413.151 78.4435 413.652 81.3775 477.898C81.3775 477.898 73.1534 429.409 59.1719 413.151Z" fill="#88A550"/>
<path fill-rule="evenodd" clip-rule="evenodd" d="M78.8511 348.486C78.8511 348.486 90.1011 416.459 79.0278 485.625C79.0278 485.625 79.6857 413.385 78.8511 348.486Z" fill="#88A550"/>
<path fill-rule="evenodd" clip-rule="evenodd" d="M94.0266 503.814H66.2029C65.9941 503.814 65.786 503.81 65.5785 503.802C52.8915 503.328 45.833 487.283 53.0183 475.707L59.3923 465.438H100.837L107.211 475.707C114.397 487.283 107.338 503.328 94.651 503.802C94.4436 503.81 94.2358 503.814 94.0266 503.814Z" fill="#BC9755"/>
<path d="M50.1431 489.055H110.087" stroke="#DFB260" stroke-width="9"/>
<path d="M51.5342 479.131H108.888" stroke="#DFB260" stroke-width="9"/>
</svg>
