<svg width="162" height="213" viewBox="0 0 162 213" fill="none" xmlns="http://www.w3.org/2000/svg">
<path d="M144 66.003C144 58.9566 136.687 53.092 126.986 51.7734L127.211 2.41099C127.215 1.38336 126.561 0.466764 125.582 0.131845C124.603 -0.203846 123.511 0.115908 122.878 0.926861C117.619 7.63502 113.802 24.9071 113.731 39.2362C113.727 39.8138 113.749 40.3772 113.752 40.9517L100.868 4.07094C100.527 3.10011 99.6008 2.45032 98.5677 2.45675C97.5304 2.4606 96.6093 3.11887 96.2801 4.0933C93.5628 12.1532 95.7342 29.7024 100.463 43.2485C102.147 48.0662 104.052 52.5574 106.064 56.634C102.306 60.1991 99.2428 65.8732 97.3176 72.8227C94.7298 72.2472 92.0466 71.9105 89.2754 71.9105C70.8199 71.9105 55.727 85.4399 54.3898 102.593C53.5902 102.434 52.8313 102.304 52.1774 102.219C51.4362 102.126 50.6643 102.324 50.0237 102.768C49.373 103.208 48.9148 103.864 48.748 104.58C47.931 108.135 47.0854 114.616 50.2982 119.183C53.882 124.282 58.9572 127.199 63.0153 126.947C63.0324 126.964 63.0449 126.984 63.0615 127H115.498V126.998H136.479C138.458 126.998 140.067 125.407 140.067 123.442C140.067 117.926 136.512 113.274 131.563 111.498C133.949 105.375 135.371 97.8826 135.371 89.7584C135.371 85.7023 135.008 81.8082 134.362 78.155C140.154 75.564 144 71.097 144 66.003Z" fill="#FA6775"/>
<path d="M52.5233 164.923H138.27C140.394 164.923 142.256 163.519 142.831 161.479L161.817 95.0331C162.224 93.6006 161.945 92.0619 161.047 90.8716C160.147 89.6851 158.748 88.9843 157.255 88.9843H41.5665L38.1738 73.7178C37.6918 71.5437 35.7637 70 33.539 70H4.74608C2.12338 70 0 72.1234 0 74.7461C0 77.37 2.12338 79.4922 4.74608 79.4922H29.7297L46.8688 156.616C41.8261 158.809 38.285 163.828 38.285 169.669C38.285 177.52 44.6725 183.907 52.5233 183.907H138.27C140.894 183.907 143.016 181.785 143.016 179.161C143.016 176.538 140.894 174.415 138.27 174.415H52.5233C49.9092 174.415 47.7772 172.288 47.7772 169.669C47.7772 167.05 49.9092 164.923 52.5233 164.923V164.923Z" fill="#88A550"/>
<path d="M47.7772 198.145C47.7772 205.998 54.1647 212.384 62.0167 212.384C69.8675 212.384 76.2549 205.998 76.2549 198.145C76.2549 190.295 69.8675 183.907 62.0167 183.907C54.1647 183.907 47.7772 190.295 47.7772 198.145Z" fill="#88A550"/>
<path d="M114.54 198.145C114.54 205.998 120.927 212.384 128.778 212.384C136.63 212.384 143.016 205.998 143.016 198.145C143.016 190.295 136.63 183.907 128.778 183.907C120.927 183.907 114.54 190.295 114.54 198.145Z" fill="#88A550"/>
</svg>
