<svg width="227" height="36" viewBox="0 0 227 36" fill="none" xmlns="http://www.w3.org/2000/svg">
<g filter="url(#filter0_d)">
<path d="M11.305 22.045C11.6317 22.045 11.9233 22.2083 12.18 22.535C12.46 22.8383 12.6 23.2467 12.6 23.76C12.6 24.39 12.25 24.9267 11.55 25.37C10.8733 25.79 10.1033 26 9.24 26C7.79333 26 6.56833 25.6967 5.565 25.09C4.585 24.46 4.095 23.1417 4.095 21.135V11.475H2.485C1.925 11.475 1.45833 11.2883 1.085 10.915C0.711667 10.5417 0.525 10.075 0.525 9.515C0.525 8.97833 0.711667 8.535 1.085 8.185C1.45833 7.81167 1.925 7.625 2.485 7.625H4.095V5.385C4.095 4.77833 4.29333 4.27667 4.69 3.88C5.11 3.46 5.62333 3.25 6.23 3.25C6.81333 3.25 7.30333 3.46 7.7 3.88C8.09667 4.27667 8.295 4.77833 8.295 5.385V7.625H10.78C11.34 7.625 11.8067 7.81167 12.18 8.185C12.5533 8.55833 12.74 9.025 12.74 9.585C12.74 10.1217 12.5533 10.5767 12.18 10.95C11.8067 11.3 11.34 11.475 10.78 11.475H8.295V20.96C8.295 21.45 8.42333 21.8117 8.68 22.045C8.93667 22.255 9.28667 22.36 9.73 22.36C9.91667 22.36 10.1733 22.3133 10.5 22.22C10.78 22.1033 11.0483 22.045 11.305 22.045ZM31.7513 6.925C32.358 6.925 32.8596 7.12333 33.2563 7.52C33.653 7.91667 33.8513 8.43 33.8513 9.06V23.865C33.8513 24.4717 33.653 24.985 33.2563 25.405C32.8596 25.8017 32.358 26 31.7513 26C31.1446 26 30.643 25.8017 30.2463 25.405C29.873 25.0083 29.6746 24.5067 29.6513 23.9C29.068 24.5767 28.2746 25.16 27.2713 25.65C26.2913 26.1167 25.253 26.35 24.1563 26.35C22.5463 26.35 21.088 25.9417 19.7813 25.125C18.4746 24.285 17.4363 23.13 16.6663 21.66C15.9196 20.19 15.5463 18.5217 15.5463 16.655C15.5463 14.7883 15.9196 13.12 16.6663 11.65C17.413 10.1567 18.428 9.00167 19.7113 8.185C21.018 7.345 22.453 6.925 24.0163 6.925C25.1363 6.925 26.1863 7.135 27.1663 7.555C28.1463 7.95167 28.9746 8.465 29.6513 9.095V9.06C29.6513 8.45333 29.8496 7.95167 30.2463 7.555C30.643 7.135 31.1446 6.925 31.7513 6.925ZM24.6813 22.5C26.198 22.5 27.4346 21.9517 28.3913 20.855C29.348 19.735 29.8263 18.335 29.8263 16.655C29.8263 14.975 29.348 13.575 28.3913 12.455C27.4346 11.335 26.198 10.775 24.6813 10.775C23.188 10.775 21.963 11.335 21.0063 12.455C20.0496 13.575 19.5713 14.975 19.5713 16.655C19.5713 18.335 20.038 19.735 20.9713 20.855C21.928 21.9517 23.1646 22.5 24.6813 22.5ZM48.4129 6.925C50.7929 6.925 52.4379 7.63667 53.3479 9.06C54.2579 10.46 54.7129 12.4083 54.7129 14.905V23.865C54.7129 24.4717 54.5146 24.985 54.1179 25.405C53.7213 25.8017 53.2196 26 52.6129 26C52.0063 26 51.5046 25.8017 51.1079 25.405C50.7113 24.985 50.5129 24.4717 50.5129 23.865V14.905C50.5129 13.6217 50.2446 12.6183 49.7079 11.895C49.1713 11.1483 48.2496 10.775 46.9429 10.775C45.5896 10.775 44.5279 11.1717 43.7579 11.965C42.9879 12.735 42.6029 13.715 42.6029 14.905V23.865C42.6029 24.4717 42.4046 24.985 42.0079 25.405C41.6113 25.8017 41.1096 26 40.5029 26C39.8963 26 39.3946 25.8017 38.9979 25.405C38.6013 24.985 38.4029 24.4717 38.4029 23.865V9.41C38.4029 8.80333 38.6013 8.30167 38.9979 7.905C39.3946 7.485 39.8963 7.275 40.5029 7.275C41.1096 7.275 41.6113 7.485 42.0079 7.905C42.4046 8.30167 42.6029 8.80333 42.6029 9.41V10.005C43.2329 9.165 44.0496 8.44167 45.0529 7.835C46.0796 7.22833 47.1996 6.925 48.4129 6.925ZM74.7575 6.925C75.3642 6.925 75.8659 7.12333 76.2625 7.52C76.6592 7.91667 76.8575 8.43 76.8575 9.06V24.635C76.8575 27.4817 75.9709 29.5817 74.1975 30.935C72.4475 32.3117 70.2192 33 67.5125 33C66.8125 33 65.8442 32.8833 64.6075 32.65C63.3942 32.4167 62.5309 32.1833 62.0175 31.95C60.8742 31.46 60.3025 30.7833 60.3025 29.92C60.3025 29.7567 60.3375 29.57 60.4075 29.36C60.5475 28.8467 60.7809 28.45 61.1075 28.17C61.4575 27.9133 61.8309 27.785 62.2275 27.785C62.4609 27.785 62.6825 27.82 62.8925 27.89C62.9859 27.9133 63.5575 28.1233 64.6075 28.52C65.6809 28.94 66.6492 29.15 67.5125 29.15C69.2392 29.15 70.5225 28.8 71.3625 28.1C72.2259 27.4233 72.6575 26.455 72.6575 25.195V23.515C72.1442 24.2383 71.3625 24.8917 70.3125 25.475C69.2859 26.0583 68.1775 26.35 66.9875 26.35C65.3542 26.35 63.8609 25.9417 62.5075 25.125C61.1775 24.285 60.1275 23.13 59.3575 21.66C58.5875 20.19 58.2025 18.5217 58.2025 16.655C58.2025 14.7883 58.5759 13.12 59.3225 11.65C60.0925 10.1567 61.1309 9.00167 62.4375 8.185C63.7675 7.345 65.2375 6.925 66.8475 6.925C68.0375 6.925 69.1459 7.17 70.1725 7.66C71.1992 8.15 72.0275 8.745 72.6575 9.445V9.06C72.6575 8.45333 72.8559 7.95167 73.2525 7.555C73.6492 7.135 74.1509 6.925 74.7575 6.925ZM67.5125 22.5C69.0759 22.5 70.3475 21.9517 71.3275 20.855C72.3309 19.735 72.8325 18.335 72.8325 16.655C72.8325 14.975 72.3309 13.575 71.3275 12.455C70.3475 11.335 69.0759 10.775 67.5125 10.775C65.9492 10.775 64.6775 11.335 63.6975 12.455C62.7175 13.575 62.2275 14.975 62.2275 16.655C62.2275 18.335 62.7175 19.735 63.6975 20.855C64.6775 21.9517 65.9492 22.5 67.5125 22.5ZM96.3851 6.925C96.9917 6.925 97.4934 7.12333 97.8901 7.52C98.2867 7.91667 98.4851 8.43 98.4851 9.06V23.865C98.4851 24.4717 98.2867 24.985 97.8901 25.405C97.4934 25.8017 96.9917 26 96.3851 26C95.7784 26 95.2767 25.8017 94.8801 25.405C94.5067 25.0083 94.3084 24.5067 94.2851 23.9C93.7017 24.5767 92.9084 25.16 91.9051 25.65C90.9251 26.1167 89.8867 26.35 88.7901 26.35C87.1801 26.35 85.7217 25.9417 84.4151 25.125C83.1084 24.285 82.0701 23.13 81.3001 21.66C80.5534 20.19 80.1801 18.5217 80.1801 16.655C80.1801 14.7883 80.5534 13.12 81.3001 11.65C82.0467 10.1567 83.0617 9.00167 84.3451 8.185C85.6517 7.345 87.0867 6.925 88.6501 6.925C89.7701 6.925 90.8201 7.135 91.8001 7.555C92.7801 7.95167 93.6084 8.465 94.2851 9.095V9.06C94.2851 8.45333 94.4834 7.95167 94.8801 7.555C95.2767 7.135 95.7784 6.925 96.3851 6.925ZM89.3151 22.5C90.8317 22.5 92.0684 21.9517 93.0251 20.855C93.9817 19.735 94.4601 18.335 94.4601 16.655C94.4601 14.975 93.9817 13.575 93.0251 12.455C92.0684 11.335 90.8317 10.775 89.3151 10.775C87.8217 10.775 86.5967 11.335 85.6401 12.455C84.6834 13.575 84.2051 14.975 84.2051 16.655C84.2051 18.335 84.6717 19.735 85.6051 20.855C86.5617 21.9517 87.7984 22.5 89.3151 22.5ZM113.047 6.925C115.427 6.925 117.072 7.63667 117.982 9.06C118.892 10.46 119.347 12.4083 119.347 14.905V23.865C119.347 24.4717 119.148 24.985 118.752 25.405C118.355 25.8017 117.853 26 117.247 26C116.64 26 116.138 25.8017 115.742 25.405C115.345 24.985 115.147 24.4717 115.147 23.865V14.905C115.147 13.6217 114.878 12.6183 114.342 11.895C113.805 11.1483 112.883 10.775 111.577 10.775C110.223 10.775 109.162 11.1717 108.392 11.965C107.622 12.735 107.237 13.715 107.237 14.905V23.865C107.237 24.4717 107.038 24.985 106.642 25.405C106.245 25.8017 105.743 26 105.137 26C104.53 26 104.028 25.8017 103.632 25.405C103.235 24.985 103.037 24.4717 103.037 23.865V9.41C103.037 8.80333 103.235 8.30167 103.632 7.905C104.028 7.485 104.53 7.275 105.137 7.275C105.743 7.275 106.245 7.485 106.642 7.905C107.038 8.30167 107.237 8.80333 107.237 9.41V10.005C107.867 9.165 108.683 8.44167 109.687 7.835C110.713 7.22833 111.833 6.925 113.047 6.925Z" fill="#88A550"/>
<path d="M139.461 22.325C139.905 22.7917 140.126 23.3167 140.126 23.9C140.126 24.4833 139.893 24.9733 139.426 25.37C138.983 25.7667 138.505 25.965 137.991 25.965C137.385 25.965 136.871 25.7317 136.451 25.265L130.151 18.615L128.436 20.19V23.865C128.436 24.4717 128.238 24.985 127.841 25.405C127.445 25.8017 126.943 26 126.336 26C125.73 26 125.228 25.8017 124.831 25.405C124.435 24.985 124.236 24.4717 124.236 23.865V2.235C124.236 1.62833 124.435 1.12666 124.831 0.729998C125.228 0.309999 125.73 0.0999997 126.336 0.0999997C126.943 0.0999997 127.445 0.309999 127.841 0.729998C128.238 1.12666 128.436 1.62833 128.436 2.235V15.185L135.926 7.94C136.37 7.49667 136.883 7.275 137.466 7.275C137.98 7.275 138.435 7.49667 138.831 7.94C139.251 8.36 139.461 8.79167 139.461 9.235C139.461 9.795 139.181 10.32 138.621 10.81L133.336 15.675L139.461 22.325ZM159.827 16.2C159.804 16.76 159.582 17.215 159.162 17.565C158.742 17.915 158.252 18.09 157.692 18.09H146.142C146.422 19.4667 147.064 20.5517 148.067 21.345C149.07 22.115 150.202 22.5 151.462 22.5C152.419 22.5 153.165 22.4183 153.702 22.255C154.239 22.0683 154.659 21.8817 154.962 21.695C155.289 21.485 155.51 21.345 155.627 21.275C156.047 21.065 156.444 20.96 156.817 20.96C157.307 20.96 157.727 21.135 158.077 21.485C158.427 21.835 158.602 22.2433 158.602 22.71C158.602 23.34 158.275 23.9117 157.622 24.425C156.969 24.9617 156.094 25.4167 154.997 25.79C153.9 26.1633 152.792 26.35 151.672 26.35C149.712 26.35 147.997 25.9417 146.527 25.125C145.08 24.3083 143.96 23.1883 143.167 21.765C142.374 20.3183 141.977 18.6967 141.977 16.9C141.977 14.8933 142.397 13.1317 143.237 11.615C144.077 10.0983 145.185 8.94333 146.562 8.15C147.939 7.33333 149.409 6.925 150.972 6.925C152.512 6.925 153.959 7.345 155.312 8.185C156.689 9.025 157.785 10.1567 158.602 11.58C159.419 13.0033 159.827 14.5433 159.827 16.2ZM150.972 10.775C148.265 10.775 146.667 12.0467 146.177 14.59H155.347V14.345C155.254 13.365 154.775 12.525 153.912 11.825C153.049 11.125 152.069 10.775 150.972 10.775ZM178.485 0.0999997C179.091 0.0999997 179.593 0.298333 179.99 0.694998C180.386 1.09167 180.585 1.605 180.585 2.235V23.865C180.585 24.4717 180.386 24.985 179.99 25.405C179.593 25.8017 179.091 26 178.485 26C177.878 26 177.376 25.8017 176.98 25.405C176.606 25.0083 176.408 24.5067 176.385 23.9C175.801 24.5767 175.008 25.16 174.005 25.65C173.025 26.1167 171.986 26.35 170.89 26.35C169.28 26.35 167.821 25.9417 166.515 25.125C165.208 24.285 164.17 23.13 163.4 21.66C162.653 20.19 162.28 18.5217 162.28 16.655C162.28 14.7883 162.653 13.12 163.4 11.65C164.146 10.1567 165.161 9.00167 166.445 8.185C167.751 7.345 169.186 6.925 170.75 6.925C171.87 6.925 172.92 7.135 173.9 7.555C174.88 7.95167 175.708 8.465 176.385 9.095V2.235C176.385 1.62833 176.583 1.12666 176.98 0.729998C177.376 0.309999 177.878 0.0999997 178.485 0.0999997ZM171.415 22.5C172.931 22.5 174.168 21.9517 175.125 20.855C176.081 19.735 176.56 18.335 176.56 16.655C176.56 14.975 176.081 13.575 175.125 12.455C174.168 11.335 172.931 10.775 171.415 10.775C169.921 10.775 168.696 11.335 167.74 12.455C166.783 13.575 166.305 14.975 166.305 16.655C166.305 18.335 166.771 19.735 167.705 20.855C168.661 21.9517 169.898 22.5 171.415 22.5ZM199.578 7.275C200.185 7.275 200.687 7.485 201.083 7.905C201.48 8.30167 201.678 8.80333 201.678 9.41V18.3C201.678 20.82 200.978 22.7917 199.578 24.215C198.202 25.6383 196.23 26.35 193.663 26.35C191.097 26.35 189.125 25.6383 187.748 24.215C186.372 22.7917 185.683 20.82 185.683 18.3V9.41C185.683 8.80333 185.882 8.30167 186.278 7.905C186.675 7.485 187.177 7.275 187.783 7.275C188.39 7.275 188.892 7.485 189.288 7.905C189.685 8.30167 189.883 8.80333 189.883 9.41V18.3C189.883 19.7233 190.198 20.785 190.828 21.485C191.458 22.1617 192.403 22.5 193.663 22.5C194.947 22.5 195.903 22.1617 196.533 21.485C197.163 20.785 197.478 19.7233 197.478 18.3V9.41C197.478 8.80333 197.677 8.30167 198.073 7.905C198.47 7.485 198.972 7.275 199.578 7.275ZM221.38 6.925C221.987 6.925 222.489 7.12333 222.885 7.52C223.282 7.91667 223.48 8.43 223.48 9.06V23.865C223.48 24.4717 223.282 24.985 222.885 25.405C222.489 25.8017 221.987 26 221.38 26C220.774 26 220.272 25.8017 219.875 25.405C219.502 25.0083 219.304 24.5067 219.28 23.9C218.697 24.5767 217.904 25.16 216.9 25.65C215.92 26.1167 214.882 26.35 213.785 26.35C212.175 26.35 210.717 25.9417 209.41 25.125C208.104 24.285 207.065 23.13 206.295 21.66C205.549 20.19 205.175 18.5217 205.175 16.655C205.175 14.7883 205.549 13.12 206.295 11.65C207.042 10.1567 208.057 9.00167 209.34 8.185C210.647 7.345 212.082 6.925 213.645 6.925C214.765 6.925 215.815 7.135 216.795 7.555C217.775 7.95167 218.604 8.465 219.28 9.095V9.06C219.28 8.45333 219.479 7.95167 219.875 7.555C220.272 7.135 220.774 6.925 221.38 6.925ZM214.31 22.5C215.827 22.5 217.064 21.9517 218.02 20.855C218.977 19.735 219.455 18.335 219.455 16.655C219.455 14.975 218.977 13.575 218.02 12.455C217.064 11.335 215.827 10.775 214.31 10.775C212.817 10.775 211.592 11.335 210.635 12.455C209.679 13.575 209.2 14.975 209.2 16.655C209.2 18.335 209.667 19.735 210.6 20.855C211.557 21.9517 212.794 22.5 214.31 22.5Z" fill="#FA6775"/>
</g>
<defs>
<filter id="filter0_d" x="0.525024" y="0.100098" width="225.955" height="35.9" filterUnits="userSpaceOnUse" color-interpolation-filters="sRGB">
<feFlood flood-opacity="0" result="BackgroundImageFix"/>
<feColorMatrix in="SourceAlpha" type="matrix" values="0 0 0 0 0 0 0 0 0 0 0 0 0 0 0 0 0 0 127 0"/>
<feOffset dx="2" dy="2"/>
<feGaussianBlur stdDeviation="0.5"/>
<feColorMatrix type="matrix" values="0 0 0 0 0 0 0 0 0 0 0 0 0 0 0 0 0 0 0.25 0"/>
<feBlend mode="normal" in2="BackgroundImageFix" result="effect1_dropShadow"/>
<feBlend mode="normal" in="SourceGraphic" in2="effect1_dropShadow" result="shape"/>
</filter>
</defs>
</svg>
