<svg width="393" height="22" viewBox="0 0 393 22" fill="none" xmlns="http://www.w3.org/2000/svg">
<g filter="url(#filter0_d)">
<path d="M10.203 1.7C10.469 1.7 10.6843 1.78233 10.849 1.947C11.0263 2.099 11.115 2.308 11.115 2.574C11.115 2.84 11.0263 3.049 10.849 3.201C10.6843 3.353 10.469 3.429 10.203 3.429H6.821V14.088C6.821 14.3413 6.726 14.5567 6.536 14.734C6.35867 14.9113 6.13067 15 5.852 15C5.57333 15 5.339 14.9113 5.149 14.734C4.97167 14.5567 4.883 14.3413 4.883 14.088V3.429H1.52C1.254 3.429 1.03233 3.353 0.855 3.201C0.690333 3.03633 0.608 2.821 0.608 2.555C0.608 2.30167 0.690333 2.099 0.855 1.947C1.03233 1.78233 1.254 1.7 1.52 1.7H10.203ZM19.5333 9.642C19.5207 9.87 19.4257 10.0663 19.2483 10.231C19.071 10.383 18.862 10.459 18.6213 10.459H11.9333C12.022 11.3837 12.3703 12.1247 12.9783 12.682C13.599 13.2393 14.3527 13.518 15.2393 13.518C15.8473 13.518 16.3413 13.4293 16.7213 13.252C17.1013 13.0747 17.437 12.8467 17.7283 12.568C17.9183 12.454 18.102 12.397 18.2793 12.397C18.4947 12.397 18.672 12.473 18.8113 12.625C18.9633 12.777 19.0393 12.9543 19.0393 13.157C19.0393 13.423 18.9127 13.6637 18.6593 13.879C18.292 14.2463 17.8043 14.5567 17.1963 14.81C16.5883 15.0633 15.9677 15.19 15.3343 15.19C14.3083 15.19 13.4027 14.9747 12.6173 14.544C11.8447 14.1133 11.243 13.5117 10.8123 12.739C10.3943 11.9663 10.1853 11.0923 10.1853 10.117C10.1853 9.053 10.4007 8.122 10.8313 7.324C11.2747 6.51333 11.851 5.89267 12.5603 5.462C13.2823 5.03133 14.055 4.816 14.8783 4.816C15.689 4.816 16.449 5.025 17.1583 5.443C17.8677 5.861 18.4377 6.43733 18.8683 7.172C19.299 7.90667 19.5207 8.73 19.5333 9.642ZM14.8783 6.488C14.169 6.488 13.5547 6.69067 13.0353 7.096C12.516 7.48867 12.174 8.103 12.0093 8.939H17.6143V8.787C17.551 8.11567 17.247 7.56467 16.7023 7.134C16.1703 6.70333 15.5623 6.488 14.8783 6.488ZM33.0483 4.873C35.2649 4.873 36.3733 6.25367 36.3733 9.015V14.088C36.3733 14.354 36.2909 14.5757 36.1263 14.753C35.9616 14.9177 35.7463 15 35.4803 15C35.2143 15 34.9926 14.9113 34.8153 14.734C34.6506 14.5567 34.5683 14.3413 34.5683 14.088V9.034C34.5683 7.37467 33.8716 6.545 32.4783 6.545C31.9843 6.545 31.5346 6.659 31.1293 6.887C30.7366 7.10233 30.4263 7.4 30.1983 7.78C29.9829 8.16 29.8753 8.578 29.8753 9.034V14.088C29.8753 14.3413 29.7866 14.5567 29.6093 14.734C29.4446 14.9113 29.2293 15 28.9633 15C28.6973 15 28.4819 14.9177 28.3173 14.753C28.1526 14.5757 28.0703 14.354 28.0703 14.088V9.015C28.0703 8.26767 27.9119 7.67233 27.5953 7.229C27.2786 6.773 26.7529 6.545 26.0183 6.545C25.2709 6.545 24.6503 6.78567 24.1563 7.267C23.6749 7.73567 23.4343 8.31833 23.4343 9.015V14.088C23.4343 14.3413 23.3456 14.5567 23.1683 14.734C23.0036 14.9113 22.7883 15 22.5223 15C22.2563 15 22.0409 14.9177 21.8763 14.753C21.7116 14.5757 21.6293 14.354 21.6293 14.088V5.956C21.6293 5.70267 21.7116 5.48733 21.8763 5.31C22.0536 5.13267 22.2689 5.044 22.5223 5.044C22.7883 5.044 23.0036 5.13267 23.1683 5.31C23.3456 5.48733 23.4343 5.70267 23.4343 5.956V6.621C23.7636 6.127 24.2006 5.71533 24.7453 5.386C25.3026 5.044 25.9043 4.873 26.5503 4.873C28.1209 4.873 29.1406 5.56967 29.6093 6.963C29.8879 6.431 30.3503 5.94967 30.9963 5.519C31.6423 5.08833 32.3263 4.873 33.0483 4.873ZM44.0677 4.873C44.929 4.873 45.708 5.09467 46.4047 5.538C47.1013 5.96867 47.646 6.57667 48.0387 7.362C48.444 8.14733 48.6467 9.034 48.6467 10.022C48.6467 11.01 48.444 11.8967 48.0387 12.682C47.646 13.4547 47.1013 14.0627 46.4047 14.506C45.708 14.9493 44.9417 15.171 44.1057 15.171C43.447 15.171 42.8327 15.0253 42.2627 14.734C41.6927 14.4427 41.2303 14.088 40.8757 13.67V17.888C40.8757 18.1413 40.787 18.3567 40.6097 18.534C40.445 18.7113 40.2297 18.8 39.9637 18.8C39.7103 18.8 39.495 18.7113 39.3177 18.534C39.153 18.3693 39.0707 18.154 39.0707 17.888V5.937C39.0707 5.671 39.153 5.44933 39.3177 5.272C39.4823 5.09467 39.6977 5.006 39.9637 5.006C40.2297 5.006 40.445 5.09467 40.6097 5.272C40.787 5.44933 40.8757 5.671 40.8757 5.937V6.488C41.1797 6.04467 41.623 5.66467 42.2057 5.348C42.7883 5.03133 43.409 4.873 44.0677 4.873ZM43.8587 13.499C44.4413 13.499 44.967 13.347 45.4357 13.043C45.9043 12.739 46.2653 12.3273 46.5187 11.808C46.7847 11.276 46.9177 10.6807 46.9177 10.022C46.9177 9.36333 46.7847 8.77433 46.5187 8.255C46.2653 7.723 45.9043 7.305 45.4357 7.001C44.967 6.697 44.4413 6.545 43.8587 6.545C43.2633 6.545 42.7313 6.697 42.2627 7.001C41.794 7.29233 41.4267 7.704 41.1607 8.236C40.9073 8.768 40.7807 9.36333 40.7807 10.022C40.7807 10.6807 40.9073 11.276 41.1607 11.808C41.4267 12.34 41.794 12.758 42.2627 13.062C42.7313 13.3533 43.2633 13.499 43.8587 13.499ZM58.8166 4.911C59.0826 4.911 59.2979 4.99967 59.4626 5.177C59.6399 5.34167 59.7286 5.56333 59.7286 5.842V14.088C59.7286 14.3413 59.6399 14.5567 59.4626 14.734C59.2979 14.9113 59.0826 15 58.8166 15C58.5506 15 58.3352 14.9177 58.1706 14.753C58.0059 14.5757 57.9236 14.354 57.9236 14.088V13.594C57.5942 14.0373 57.1446 14.4173 56.5746 14.734C56.0046 15.038 55.3902 15.19 54.7316 15.19C53.8702 15.19 53.0849 14.9683 52.3756 14.525C51.6789 14.0817 51.1279 13.4673 50.7226 12.682C50.3299 11.884 50.1336 10.991 50.1336 10.003C50.1336 9.015 50.3299 8.12833 50.7226 7.343C51.1279 6.545 51.6789 5.92433 52.3756 5.481C53.0722 5.03767 53.8386 4.816 54.6746 4.816C55.3459 4.816 55.9666 4.95533 56.5366 5.234C57.1192 5.51267 57.5816 5.86733 57.9236 6.298V5.842C57.9236 5.576 58.0059 5.35433 58.1706 5.177C58.3352 4.99967 58.5506 4.911 58.8166 4.911ZM54.9406 13.518C55.5359 13.518 56.0616 13.366 56.5176 13.062C56.9862 12.758 57.3472 12.34 57.6006 11.808C57.8666 11.276 57.9996 10.6743 57.9996 10.003C57.9996 9.34433 57.8666 8.749 57.6006 8.217C57.3472 7.685 56.9862 7.267 56.5176 6.963C56.0616 6.64633 55.5359 6.488 54.9406 6.488C54.3452 6.488 53.8132 6.64 53.3446 6.944C52.8886 7.248 52.5276 7.666 52.2616 8.198C52.0082 8.73 51.8816 9.33167 51.8816 10.003C51.8816 10.6743 52.0082 11.276 52.2616 11.808C52.5276 12.34 52.8886 12.758 53.3446 13.062C53.8132 13.366 54.3452 13.518 54.9406 13.518ZM65.1105 6.811V12.473C65.1105 13.1063 65.3955 13.423 65.9655 13.423C66.0541 13.423 66.1745 13.404 66.3265 13.366C66.4785 13.3153 66.5988 13.29 66.6875 13.29C66.8521 13.29 66.9915 13.3597 67.1055 13.499C67.2195 13.6383 67.2765 13.8157 67.2765 14.031C67.2765 14.297 67.1245 14.525 66.8205 14.715C66.5165 14.905 66.1745 15 65.7945 15C65.3765 15 64.9901 14.9557 64.6355 14.867C64.2935 14.7783 63.9831 14.5567 63.7045 14.202C63.4385 13.8347 63.3055 13.2837 63.3055 12.549V6.811H62.2035C61.9628 6.811 61.7601 6.735 61.5955 6.583C61.4435 6.41833 61.3675 6.21567 61.3675 5.975C61.3675 5.73433 61.4435 5.538 61.5955 5.386C61.7601 5.234 61.9628 5.158 62.2035 5.158H63.3055V3.562C63.3055 3.30867 63.3878 3.09333 63.5525 2.916C63.7298 2.73867 63.9515 2.65 64.2175 2.65C64.4708 2.65 64.6798 2.73867 64.8445 2.916C65.0218 3.09333 65.1105 3.30867 65.1105 3.562V5.158H66.6875C66.9281 5.158 67.1245 5.24033 67.2765 5.405C67.4411 5.557 67.5235 5.75333 67.5235 5.994C67.5235 6.23467 67.4411 6.431 67.2765 6.583C67.1245 6.735 66.9281 6.811 66.6875 6.811H65.1105ZM79.8968 4.816C80.7581 4.816 81.5371 5.03767 82.2338 5.481C82.9304 5.92433 83.4751 6.53867 83.8678 7.324C84.2731 8.10933 84.4758 8.996 84.4758 9.984C84.4758 10.972 84.2731 11.865 83.8678 12.663C83.4751 13.461 82.9304 14.0817 82.2338 14.525C81.5371 14.9683 80.7708 15.19 79.9348 15.19C79.2761 15.19 78.6618 15.0443 78.0918 14.753C77.5218 14.4617 77.0594 14.1007 76.7048 13.67V14.221C76.7048 14.4743 76.6161 14.6897 76.4388 14.867C76.2741 15.0443 76.0588 15.133 75.7928 15.133C75.5394 15.133 75.3241 15.0507 75.1468 14.886C74.9821 14.7087 74.8998 14.487 74.8998 14.221V1.852C74.8998 1.586 74.9821 1.37067 75.1468 1.206C75.3114 1.02867 75.5268 0.94 75.7928 0.94C76.0588 0.94 76.2741 1.02867 76.4388 1.206C76.6161 1.38333 76.7048 1.59867 76.7048 1.852V6.488C77.0088 6.032 77.4521 5.63933 78.0348 5.31C78.6174 4.98067 79.2381 4.816 79.8968 4.816ZM79.6878 13.518C80.2704 13.518 80.7961 13.366 81.2648 13.062C81.7334 12.7453 82.0944 12.321 82.3478 11.789C82.6138 11.2443 82.7468 10.6427 82.7468 9.984C82.7468 9.32533 82.6138 8.73 82.3478 8.198C82.0944 7.666 81.7334 7.248 81.2648 6.944C80.7961 6.64 80.2704 6.488 79.6878 6.488C79.0924 6.488 78.5604 6.64 78.0918 6.944C77.6231 7.248 77.2558 7.666 76.9898 8.198C76.7364 8.71733 76.6098 9.31267 76.6098 9.984C76.6098 10.6553 76.7364 11.257 76.9898 11.789C77.2558 12.321 77.6231 12.7453 78.0918 13.062C78.5604 13.366 79.0924 13.518 79.6878 13.518ZM94.6457 4.911C94.9117 4.911 95.127 4.99967 95.2917 5.177C95.469 5.34167 95.5577 5.56333 95.5577 5.842V14.088C95.5577 14.3413 95.469 14.5567 95.2917 14.734C95.127 14.9113 94.9117 15 94.6457 15C94.3797 15 94.1643 14.9177 93.9997 14.753C93.835 14.5757 93.7527 14.354 93.7527 14.088V13.594C93.4233 14.0373 92.9737 14.4173 92.4037 14.734C91.8337 15.038 91.2193 15.19 90.5607 15.19C89.6993 15.19 88.914 14.9683 88.2047 14.525C87.508 14.0817 86.957 13.4673 86.5517 12.682C86.159 11.884 85.9627 10.991 85.9627 10.003C85.9627 9.015 86.159 8.12833 86.5517 7.343C86.957 6.545 87.508 5.92433 88.2047 5.481C88.9013 5.03767 89.6677 4.816 90.5037 4.816C91.175 4.816 91.7957 4.95533 92.3657 5.234C92.9483 5.51267 93.4107 5.86733 93.7527 6.298V5.842C93.7527 5.576 93.835 5.35433 93.9997 5.177C94.1643 4.99967 94.3797 4.911 94.6457 4.911ZM90.7697 13.518C91.365 13.518 91.8907 13.366 92.3467 13.062C92.8153 12.758 93.1763 12.34 93.4297 11.808C93.6957 11.276 93.8287 10.6743 93.8287 10.003C93.8287 9.34433 93.6957 8.749 93.4297 8.217C93.1763 7.685 92.8153 7.267 92.3467 6.963C91.8907 6.64633 91.365 6.488 90.7697 6.488C90.1743 6.488 89.6423 6.64 89.1737 6.944C88.7177 7.248 88.3567 7.666 88.0907 8.198C87.8373 8.73 87.7107 9.33167 87.7107 10.003C87.7107 10.6743 87.8373 11.276 88.0907 11.808C88.3567 12.34 88.7177 12.758 89.1737 13.062C89.6423 13.366 90.1743 13.518 90.7697 13.518ZM103.201 4.816C103.53 4.816 103.815 4.90467 104.056 5.082C104.296 5.24667 104.417 5.45567 104.417 5.709C104.417 6.013 104.334 6.24733 104.17 6.412C104.018 6.564 103.828 6.64 103.6 6.64C103.486 6.64 103.315 6.602 103.087 6.526C102.821 6.43733 102.612 6.393 102.46 6.393C102.067 6.393 101.681 6.53233 101.301 6.811C100.933 7.077 100.629 7.45067 100.389 7.932C100.161 8.40067 100.047 8.92633 100.047 9.509V14.088C100.047 14.3413 99.9579 14.5567 99.7806 14.734C99.6159 14.9113 99.4006 15 99.1346 15C98.8686 15 98.6532 14.9177 98.4886 14.753C98.3239 14.5757 98.2416 14.354 98.2416 14.088V5.956C98.2416 5.70267 98.3239 5.48733 98.4886 5.31C98.6659 5.13267 98.8812 5.044 99.1346 5.044C99.4006 5.044 99.6159 5.13267 99.7806 5.31C99.9579 5.48733 100.047 5.70267 100.047 5.956V6.925C100.325 6.30433 100.743 5.804 101.301 5.424C101.858 5.03133 102.491 4.82867 103.201 4.816ZM108.788 6.811V12.473C108.788 13.1063 109.073 13.423 109.643 13.423C109.732 13.423 109.852 13.404 110.004 13.366C110.156 13.3153 110.277 13.29 110.365 13.29C110.53 13.29 110.669 13.3597 110.783 13.499C110.897 13.6383 110.954 13.8157 110.954 14.031C110.954 14.297 110.802 14.525 110.498 14.715C110.194 14.905 109.852 15 109.472 15C109.054 15 108.668 14.9557 108.313 14.867C107.971 14.7783 107.661 14.5567 107.382 14.202C107.116 13.8347 106.983 13.2837 106.983 12.549V6.811H105.881C105.641 6.811 105.438 6.735 105.273 6.583C105.121 6.41833 105.045 6.21567 105.045 5.975C105.045 5.73433 105.121 5.538 105.273 5.386C105.438 5.234 105.641 5.158 105.881 5.158H106.983V3.562C106.983 3.30867 107.066 3.09333 107.23 2.916C107.408 2.73867 107.629 2.65 107.895 2.65C108.149 2.65 108.358 2.73867 108.522 2.916C108.7 3.09333 108.788 3.30867 108.788 3.562V5.158H110.365C110.606 5.158 110.802 5.24033 110.954 5.405C111.119 5.557 111.201 5.75333 111.201 5.994C111.201 6.23467 111.119 6.431 110.954 6.583C110.802 6.735 110.606 6.811 110.365 6.811H108.788ZM121.955 9.642C121.943 9.87 121.848 10.0663 121.67 10.231C121.493 10.383 121.284 10.459 121.043 10.459H114.355C114.444 11.3837 114.792 12.1247 115.4 12.682C116.021 13.2393 116.775 13.518 117.661 13.518C118.269 13.518 118.763 13.4293 119.143 13.252C119.523 13.0747 119.859 12.8467 120.15 12.568C120.34 12.454 120.524 12.397 120.701 12.397C120.917 12.397 121.094 12.473 121.233 12.625C121.385 12.777 121.461 12.9543 121.461 13.157C121.461 13.423 121.335 13.6637 121.081 13.879C120.714 14.2463 120.226 14.5567 119.618 14.81C119.01 15.0633 118.39 15.19 117.756 15.19C116.73 15.19 115.825 14.9747 115.039 14.544C114.267 14.1133 113.665 13.5117 113.234 12.739C112.816 11.9663 112.607 11.0923 112.607 10.117C112.607 9.053 112.823 8.122 113.253 7.324C113.697 6.51333 114.273 5.89267 114.982 5.462C115.704 5.03133 116.477 4.816 117.3 4.816C118.111 4.816 118.871 5.025 119.58 5.443C120.29 5.861 120.86 6.43733 121.29 7.172C121.721 7.90667 121.943 8.73 121.955 9.642ZM117.3 6.488C116.591 6.488 115.977 6.69067 115.457 7.096C114.938 7.48867 114.596 8.103 114.431 8.939H120.036V8.787C119.973 8.11567 119.669 7.56467 119.124 7.134C118.592 6.70333 117.984 6.488 117.3 6.488ZM129.01 4.816C129.339 4.816 129.624 4.90467 129.865 5.082C130.106 5.24667 130.226 5.45567 130.226 5.709C130.226 6.013 130.144 6.24733 129.979 6.412C129.827 6.564 129.637 6.64 129.409 6.64C129.295 6.64 129.124 6.602 128.896 6.526C128.63 6.43733 128.421 6.393 128.269 6.393C127.876 6.393 127.49 6.53233 127.11 6.811C126.743 7.077 126.439 7.45067 126.198 7.932C125.97 8.40067 125.856 8.92633 125.856 9.509V14.088C125.856 14.3413 125.767 14.5567 125.59 14.734C125.425 14.9113 125.21 15 124.944 15C124.678 15 124.463 14.9177 124.298 14.753C124.133 14.5757 124.051 14.354 124.051 14.088V5.956C124.051 5.70267 124.133 5.48733 124.298 5.31C124.475 5.13267 124.691 5.044 124.944 5.044C125.21 5.044 125.425 5.13267 125.59 5.31C125.767 5.48733 125.856 5.70267 125.856 5.956V6.925C126.135 6.30433 126.553 5.804 127.11 5.424C127.667 5.03133 128.301 4.82867 129.01 4.816ZM146.593 10.022C146.593 11.01 146.372 11.8967 145.928 12.682C145.485 13.4673 144.877 14.0817 144.104 14.525C143.344 14.9683 142.502 15.19 141.577 15.19C140.653 15.19 139.804 14.9683 139.031 14.525C138.271 14.0817 137.67 13.4673 137.226 12.682C136.783 11.8967 136.561 11.01 136.561 10.022C136.561 9.034 136.783 8.141 137.226 7.343C137.67 6.545 138.271 5.92433 139.031 5.481C139.804 5.03767 140.653 4.816 141.577 4.816C142.502 4.816 143.344 5.03767 144.104 5.481C144.877 5.92433 145.485 6.545 145.928 7.343C146.372 8.141 146.593 9.034 146.593 10.022ZM144.788 10.022C144.788 9.338 144.643 8.73 144.351 8.198C144.073 7.65333 143.686 7.23533 143.192 6.944C142.711 6.64 142.173 6.488 141.577 6.488C140.982 6.488 140.437 6.64 139.943 6.944C139.462 7.23533 139.076 7.65333 138.784 8.198C138.506 8.73 138.366 9.338 138.366 10.022C138.366 10.6933 138.506 11.295 138.784 11.827C139.076 12.359 139.462 12.777 139.943 13.081C140.437 13.3723 140.982 13.518 141.577 13.518C142.173 13.518 142.711 13.3723 143.192 13.081C143.686 12.777 144.073 12.359 144.351 11.827C144.643 11.295 144.788 10.6933 144.788 10.022ZM153.765 4.816C156.045 4.816 157.185 6.184 157.185 8.92V14.088C157.185 14.3413 157.096 14.5567 156.919 14.734C156.754 14.9113 156.539 15 156.273 15C156.019 15 155.804 14.9113 155.627 14.734C155.462 14.5567 155.38 14.3413 155.38 14.088V8.939C155.38 8.19167 155.209 7.59633 154.867 7.153C154.525 6.70967 153.967 6.488 153.195 6.488C152.688 6.488 152.226 6.602 151.808 6.83C151.402 7.04533 151.079 7.343 150.839 7.723C150.611 8.09033 150.497 8.49567 150.497 8.939V14.088C150.497 14.3413 150.408 14.5567 150.231 14.734C150.066 14.9113 149.851 15 149.585 15C149.319 15 149.103 14.9177 148.939 14.753C148.774 14.5757 148.692 14.354 148.692 14.088V5.956C148.692 5.70267 148.774 5.48733 148.939 5.31C149.116 5.13267 149.331 5.044 149.585 5.044C149.851 5.044 150.066 5.13267 150.231 5.31C150.408 5.48733 150.497 5.70267 150.497 5.956V6.621C150.826 6.11433 151.282 5.69 151.865 5.348C152.46 4.99333 153.093 4.816 153.765 4.816ZM161.837 14.088C161.837 14.3413 161.749 14.5567 161.571 14.734C161.394 14.9113 161.179 15 160.925 15C160.672 15 160.457 14.9113 160.279 14.734C160.115 14.5567 160.032 14.3413 160.032 14.088V1.852C160.032 1.59867 160.121 1.38333 160.298 1.206C160.476 1.02867 160.691 0.94 160.944 0.94C161.198 0.94 161.407 1.02867 161.571 1.206C161.749 1.38333 161.837 1.59867 161.837 1.852V14.088ZM166.396 14.088C166.396 14.3413 166.307 14.5567 166.13 14.734C165.965 14.9113 165.75 15 165.484 15C165.231 15 165.015 14.9113 164.838 14.734C164.673 14.5567 164.591 14.3413 164.591 14.088V5.861C164.591 5.60767 164.673 5.39233 164.838 5.215C165.015 5.03767 165.231 4.949 165.484 4.949C165.75 4.949 165.965 5.03767 166.13 5.215C166.307 5.39233 166.396 5.60767 166.396 5.861V14.088ZM165.484 3.695C165.117 3.695 164.851 3.63167 164.686 3.505C164.534 3.36567 164.458 3.15033 164.458 2.859V2.555C164.458 2.251 164.54 2.03567 164.705 1.909C164.882 1.78233 165.148 1.719 165.503 1.719C165.858 1.719 166.111 1.78867 166.263 1.928C166.428 2.05467 166.51 2.26367 166.51 2.555V2.859C166.51 3.163 166.428 3.37833 166.263 3.505C166.098 3.63167 165.839 3.695 165.484 3.695ZM174.064 4.816C176.344 4.816 177.484 6.184 177.484 8.92V14.088C177.484 14.3413 177.395 14.5567 177.218 14.734C177.053 14.9113 176.838 15 176.572 15C176.318 15 176.103 14.9113 175.926 14.734C175.761 14.5567 175.679 14.3413 175.679 14.088V8.939C175.679 8.19167 175.508 7.59633 175.166 7.153C174.824 6.70967 174.266 6.488 173.494 6.488C172.987 6.488 172.525 6.602 172.107 6.83C171.701 7.04533 171.378 7.343 171.138 7.723C170.91 8.09033 170.796 8.49567 170.796 8.939V14.088C170.796 14.3413 170.707 14.5567 170.53 14.734C170.365 14.9113 170.15 15 169.884 15C169.618 15 169.402 14.9177 169.238 14.753C169.073 14.5757 168.991 14.354 168.991 14.088V5.956C168.991 5.70267 169.073 5.48733 169.238 5.31C169.415 5.13267 169.63 5.044 169.884 5.044C170.15 5.044 170.365 5.13267 170.53 5.31C170.707 5.48733 170.796 5.70267 170.796 5.956V6.621C171.125 6.11433 171.581 5.69 172.164 5.348C172.759 4.99333 173.392 4.816 174.064 4.816ZM188.919 9.642C188.906 9.87 188.811 10.0663 188.634 10.231C188.457 10.383 188.248 10.459 188.007 10.459H181.319C181.408 11.3837 181.756 12.1247 182.364 12.682C182.985 13.2393 183.738 13.518 184.625 13.518C185.233 13.518 185.727 13.4293 186.107 13.252C186.487 13.0747 186.823 12.8467 187.114 12.568C187.304 12.454 187.488 12.397 187.665 12.397C187.88 12.397 188.058 12.473 188.197 12.625C188.349 12.777 188.425 12.9543 188.425 13.157C188.425 13.423 188.298 13.6637 188.045 13.879C187.678 14.2463 187.19 14.5567 186.582 14.81C185.974 15.0633 185.353 15.19 184.72 15.19C183.694 15.19 182.788 14.9747 182.003 14.544C181.23 14.1133 180.629 13.5117 180.198 12.739C179.78 11.9663 179.571 11.0923 179.571 10.117C179.571 9.053 179.786 8.122 180.217 7.324C180.66 6.51333 181.237 5.89267 181.946 5.462C182.668 5.03133 183.441 4.816 184.264 4.816C185.075 4.816 185.835 5.025 186.544 5.443C187.253 5.861 187.823 6.43733 188.254 7.172C188.685 7.90667 188.906 8.73 188.919 9.642ZM184.264 6.488C183.555 6.488 182.94 6.69067 182.421 7.096C181.902 7.48867 181.56 8.103 181.395 8.939H187V8.787C186.937 8.11567 186.633 7.56467 186.088 7.134C185.556 6.70333 184.948 6.488 184.264 6.488ZM201.282 4.873C202.143 4.873 202.922 5.09467 203.619 5.538C204.315 5.96867 204.86 6.57667 205.253 7.362C205.658 8.14733 205.861 9.034 205.861 10.022C205.861 11.01 205.658 11.8967 205.253 12.682C204.86 13.4547 204.315 14.0627 203.619 14.506C202.922 14.9493 202.156 15.171 201.32 15.171C200.661 15.171 200.047 15.0253 199.477 14.734C198.907 14.4427 198.444 14.088 198.09 13.67V17.888C198.09 18.1413 198.001 18.3567 197.824 18.534C197.659 18.7113 197.444 18.8 197.178 18.8C196.924 18.8 196.709 18.7113 196.532 18.534C196.367 18.3693 196.285 18.154 196.285 17.888V5.937C196.285 5.671 196.367 5.44933 196.532 5.272C196.696 5.09467 196.912 5.006 197.178 5.006C197.444 5.006 197.659 5.09467 197.824 5.272C198.001 5.44933 198.09 5.671 198.09 5.937V6.488C198.394 6.04467 198.837 5.66467 199.42 5.348C200.002 5.03133 200.623 4.873 201.282 4.873ZM201.073 13.499C201.655 13.499 202.181 13.347 202.65 13.043C203.118 12.739 203.479 12.3273 203.733 11.808C203.999 11.276 204.132 10.6807 204.132 10.022C204.132 9.36333 203.999 8.77433 203.733 8.255C203.479 7.723 203.118 7.305 202.65 7.001C202.181 6.697 201.655 6.545 201.073 6.545C200.477 6.545 199.945 6.697 199.477 7.001C199.008 7.29233 198.641 7.704 198.375 8.236C198.121 8.768 197.995 9.36333 197.995 10.022C197.995 10.6807 198.121 11.276 198.375 11.808C198.641 12.34 199.008 12.758 199.477 13.062C199.945 13.3533 200.477 13.499 201.073 13.499ZM216.695 9.642C216.683 9.87 216.588 10.0663 216.41 10.231C216.233 10.383 216.024 10.459 215.783 10.459H209.095C209.184 11.3837 209.532 12.1247 210.14 12.682C210.761 13.2393 211.515 13.518 212.401 13.518C213.009 13.518 213.503 13.4293 213.883 13.252C214.263 13.0747 214.599 12.8467 214.89 12.568C215.08 12.454 215.264 12.397 215.441 12.397C215.657 12.397 215.834 12.473 215.973 12.625C216.125 12.777 216.201 12.9543 216.201 13.157C216.201 13.423 216.075 13.6637 215.821 13.879C215.454 14.2463 214.966 14.5567 214.358 14.81C213.75 15.0633 213.13 15.19 212.496 15.19C211.47 15.19 210.565 14.9747 209.779 14.544C209.007 14.1133 208.405 13.5117 207.974 12.739C207.556 11.9663 207.347 11.0923 207.347 10.117C207.347 9.053 207.563 8.122 207.993 7.324C208.437 6.51333 209.013 5.89267 209.722 5.462C210.444 5.03133 211.217 4.816 212.04 4.816C212.851 4.816 213.611 5.025 214.32 5.443C215.03 5.861 215.6 6.43733 216.03 7.172C216.461 7.90667 216.683 8.73 216.695 9.642ZM212.04 6.488C211.331 6.488 210.717 6.69067 210.197 7.096C209.678 7.48867 209.336 8.103 209.171 8.939H214.776V8.787C214.713 8.11567 214.409 7.56467 213.864 7.134C213.332 6.70333 212.724 6.488 212.04 6.488ZM223.75 4.816C224.08 4.816 224.365 4.90467 224.605 5.082C224.846 5.24667 224.966 5.45567 224.966 5.709C224.966 6.013 224.884 6.24733 224.719 6.412C224.567 6.564 224.377 6.64 224.149 6.64C224.035 6.64 223.864 6.602 223.636 6.526C223.37 6.43733 223.161 6.393 223.009 6.393C222.617 6.393 222.23 6.53233 221.85 6.811C221.483 7.077 221.179 7.45067 220.938 7.932C220.71 8.40067 220.596 8.92633 220.596 9.509V14.088C220.596 14.3413 220.508 14.5567 220.33 14.734C220.166 14.9113 219.95 15 219.684 15C219.418 15 219.203 14.9177 219.038 14.753C218.874 14.5757 218.791 14.354 218.791 14.088V5.956C218.791 5.70267 218.874 5.48733 219.038 5.31C219.216 5.13267 219.431 5.044 219.684 5.044C219.95 5.044 220.166 5.13267 220.33 5.31C220.508 5.48733 220.596 5.70267 220.596 5.956V6.925C220.875 6.30433 221.293 5.804 221.85 5.424C222.408 5.03133 223.041 4.82867 223.75 4.816ZM229.338 6.811V12.473C229.338 13.1063 229.623 13.423 230.193 13.423C230.282 13.423 230.402 13.404 230.554 13.366C230.706 13.3153 230.826 13.29 230.915 13.29C231.08 13.29 231.219 13.3597 231.333 13.499C231.447 13.6383 231.504 13.8157 231.504 14.031C231.504 14.297 231.352 14.525 231.048 14.715C230.744 14.905 230.402 15 230.022 15C229.604 15 229.218 14.9557 228.863 14.867C228.521 14.7783 228.211 14.5567 227.932 14.202C227.666 13.8347 227.533 13.2837 227.533 12.549V6.811H226.431C226.19 6.811 225.988 6.735 225.823 6.583C225.671 6.41833 225.595 6.21567 225.595 5.975C225.595 5.73433 225.671 5.538 225.823 5.386C225.988 5.234 226.19 5.158 226.431 5.158H227.533V3.562C227.533 3.30867 227.615 3.09333 227.78 2.916C227.957 2.73867 228.179 2.65 228.445 2.65C228.698 2.65 228.907 2.73867 229.072 2.916C229.249 3.09333 229.338 3.30867 229.338 3.562V5.158H230.915C231.156 5.158 231.352 5.24033 231.504 5.405C231.669 5.557 231.751 5.75333 231.751 5.994C231.751 6.23467 231.669 6.431 231.504 6.583C231.352 6.735 231.156 6.811 230.915 6.811H229.338ZM241.933 4.911C242.199 4.911 242.414 4.99967 242.579 5.177C242.756 5.34167 242.845 5.56333 242.845 5.842V14.088C242.845 14.3413 242.756 14.5567 242.579 14.734C242.414 14.9113 242.199 15 241.933 15C241.667 15 241.451 14.9177 241.287 14.753C241.122 14.5757 241.04 14.354 241.04 14.088V13.594C240.71 14.0373 240.261 14.4173 239.691 14.734C239.121 15.038 238.506 15.19 237.848 15.19C236.986 15.19 236.201 14.9683 235.492 14.525C234.795 14.0817 234.244 13.4673 233.839 12.682C233.446 11.884 233.25 10.991 233.25 10.003C233.25 9.015 233.446 8.12833 233.839 7.343C234.244 6.545 234.795 5.92433 235.492 5.481C236.188 5.03767 236.955 4.816 237.791 4.816C238.462 4.816 239.083 4.95533 239.653 5.234C240.235 5.51267 240.698 5.86733 241.04 6.298V5.842C241.04 5.576 241.122 5.35433 241.287 5.177C241.451 4.99967 241.667 4.911 241.933 4.911ZM238.057 13.518C238.652 13.518 239.178 13.366 239.634 13.062C240.102 12.758 240.463 12.34 240.717 11.808C240.983 11.276 241.116 10.6743 241.116 10.003C241.116 9.34433 240.983 8.749 240.717 8.217C240.463 7.685 240.102 7.267 239.634 6.963C239.178 6.64633 238.652 6.488 238.057 6.488C237.461 6.488 236.929 6.64 236.461 6.944C236.005 7.248 235.644 7.666 235.378 8.198C235.124 8.73 234.998 9.33167 234.998 10.003C234.998 10.6743 235.124 11.276 235.378 11.808C235.644 12.34 236.005 12.758 236.461 13.062C236.929 13.366 237.461 13.518 238.057 13.518ZM256.948 4.873C259.164 4.873 260.273 6.25367 260.273 9.015V14.088C260.273 14.354 260.19 14.5757 260.026 14.753C259.861 14.9177 259.646 15 259.38 15C259.114 15 258.892 14.9113 258.715 14.734C258.55 14.5567 258.468 14.3413 258.468 14.088V9.034C258.468 7.37467 257.771 6.545 256.378 6.545C255.884 6.545 255.434 6.659 255.029 6.887C254.636 7.10233 254.326 7.4 254.098 7.78C253.882 8.16 253.775 8.578 253.775 9.034V14.088C253.775 14.3413 253.686 14.5567 253.509 14.734C253.344 14.9113 253.129 15 252.863 15C252.597 15 252.381 14.9177 252.217 14.753C252.052 14.5757 251.97 14.354 251.97 14.088V9.015C251.97 8.26767 251.811 7.67233 251.495 7.229C251.178 6.773 250.652 6.545 249.918 6.545C249.17 6.545 248.55 6.78567 248.056 7.267C247.574 7.73567 247.334 8.31833 247.334 9.015V14.088C247.334 14.3413 247.245 14.5567 247.068 14.734C246.903 14.9113 246.688 15 246.422 15C246.156 15 245.94 14.9177 245.776 14.753C245.611 14.5757 245.529 14.354 245.529 14.088V5.956C245.529 5.70267 245.611 5.48733 245.776 5.31C245.953 5.13267 246.168 5.044 246.422 5.044C246.688 5.044 246.903 5.13267 247.068 5.31C247.245 5.48733 247.334 5.70267 247.334 5.956V6.621C247.663 6.127 248.1 5.71533 248.645 5.386C249.202 5.044 249.804 4.873 250.45 4.873C252.02 4.873 253.04 5.56967 253.509 6.963C253.787 6.431 254.25 5.94967 254.896 5.519C255.542 5.08833 256.226 4.873 256.948 4.873ZM271.045 4.911C271.311 4.911 271.526 4.99967 271.691 5.177C271.868 5.34167 271.957 5.56333 271.957 5.842V14.088C271.957 14.3413 271.868 14.5567 271.691 14.734C271.526 14.9113 271.311 15 271.045 15C270.779 15 270.564 14.9177 270.399 14.753C270.234 14.5757 270.152 14.354 270.152 14.088V13.594C269.823 14.0373 269.373 14.4173 268.803 14.734C268.233 15.038 267.619 15.19 266.96 15.19C266.099 15.19 265.313 14.9683 264.604 14.525C263.907 14.0817 263.356 13.4673 262.951 12.682C262.558 11.884 262.362 10.991 262.362 10.003C262.362 9.015 262.558 8.12833 262.951 7.343C263.356 6.545 263.907 5.92433 264.604 5.481C265.301 5.03767 266.067 4.816 266.903 4.816C267.574 4.816 268.195 4.95533 268.765 5.234C269.348 5.51267 269.81 5.86733 270.152 6.298V5.842C270.152 5.576 270.234 5.35433 270.399 5.177C270.564 4.99967 270.779 4.911 271.045 4.911ZM267.169 13.518C267.764 13.518 268.29 13.366 268.746 13.062C269.215 12.758 269.576 12.34 269.829 11.808C270.095 11.276 270.228 10.6743 270.228 10.003C270.228 9.34433 270.095 8.749 269.829 8.217C269.576 7.685 269.215 7.267 268.746 6.963C268.29 6.64633 267.764 6.488 267.169 6.488C266.574 6.488 266.042 6.64 265.573 6.944C265.117 7.248 264.756 7.666 264.49 8.198C264.237 8.73 264.11 9.33167 264.11 10.003C264.11 10.6743 264.237 11.276 264.49 11.808C264.756 12.34 265.117 12.758 265.573 13.062C266.042 13.366 266.574 13.518 267.169 13.518ZM287.986 0.94C288.252 0.94 288.467 1.02867 288.632 1.206C288.809 1.37067 288.898 1.586 288.898 1.852V14.088C288.898 14.3413 288.809 14.5567 288.632 14.734C288.467 14.9113 288.252 15 287.986 15C287.72 15 287.504 14.9177 287.34 14.753C287.175 14.5757 287.093 14.354 287.093 14.088V13.556C286.776 14.012 286.326 14.3983 285.744 14.715C285.174 15.0317 284.559 15.19 283.901 15.19C283.039 15.19 282.26 14.9683 281.564 14.525C280.867 14.0817 280.316 13.4673 279.911 12.682C279.505 11.884 279.303 10.991 279.303 10.003C279.303 9.015 279.499 8.12833 279.892 7.343C280.297 6.545 280.848 5.92433 281.545 5.481C282.241 5.03767 283.008 4.816 283.844 4.816C284.515 4.816 285.136 4.95533 285.706 5.234C286.276 5.51267 286.738 5.87367 287.093 6.317V1.852C287.093 1.586 287.175 1.37067 287.34 1.206C287.504 1.02867 287.72 0.94 287.986 0.94ZM284.11 13.518C284.705 13.518 285.231 13.366 285.687 13.062C286.155 12.758 286.516 12.34 286.77 11.808C287.036 11.276 287.169 10.6743 287.169 10.003C287.169 9.34433 287.036 8.749 286.77 8.217C286.516 7.67233 286.155 7.248 285.687 6.944C285.231 6.64 284.705 6.488 284.11 6.488C283.514 6.488 282.982 6.64 282.514 6.944C282.058 7.248 281.697 7.67233 281.431 8.217C281.177 8.749 281.051 9.34433 281.051 10.003C281.051 10.6743 281.177 11.276 281.431 11.808C281.697 12.34 282.058 12.758 282.514 13.062C282.982 13.366 283.514 13.518 284.11 13.518ZM293.291 14.088C293.291 14.3413 293.203 14.5567 293.025 14.734C292.861 14.9113 292.645 15 292.379 15C292.126 15 291.911 14.9113 291.733 14.734C291.569 14.5567 291.486 14.3413 291.486 14.088V5.861C291.486 5.60767 291.569 5.39233 291.733 5.215C291.911 5.03767 292.126 4.949 292.379 4.949C292.645 4.949 292.861 5.03767 293.025 5.215C293.203 5.39233 293.291 5.60767 293.291 5.861V14.088ZM292.379 3.695C292.012 3.695 291.746 3.63167 291.581 3.505C291.429 3.36567 291.353 3.15033 291.353 2.859V2.555C291.353 2.251 291.436 2.03567 291.6 1.909C291.778 1.78233 292.044 1.719 292.398 1.719C292.753 1.719 293.006 1.78867 293.158 1.928C293.323 2.05467 293.405 2.26367 293.405 2.555V2.859C293.405 3.163 293.323 3.37833 293.158 3.505C292.994 3.63167 292.734 3.695 292.379 3.695ZM303.265 14.069C303.265 14.335 303.17 14.5567 302.98 14.734C302.79 14.9113 302.568 15 302.315 15C302.036 15 301.808 14.9113 301.631 14.734C301.466 14.5567 301.384 14.335 301.384 14.069V2.612C301.384 2.35867 301.472 2.14333 301.65 1.966C301.827 1.78867 302.055 1.7 302.334 1.7C302.587 1.7 302.802 1.78867 302.98 1.966C303.17 2.14333 303.265 2.35867 303.265 2.612V14.069ZM311.257 4.816C313.537 4.816 314.677 6.184 314.677 8.92V14.088C314.677 14.3413 314.588 14.5567 314.411 14.734C314.246 14.9113 314.031 15 313.765 15C313.512 15 313.296 14.9113 313.119 14.734C312.954 14.5567 312.872 14.3413 312.872 14.088V8.939C312.872 8.19167 312.701 7.59633 312.359 7.153C312.017 6.70967 311.46 6.488 310.687 6.488C310.18 6.488 309.718 6.602 309.3 6.83C308.895 7.04533 308.572 7.343 308.331 7.723C308.103 8.09033 307.989 8.49567 307.989 8.939V14.088C307.989 14.3413 307.9 14.5567 307.723 14.734C307.558 14.9113 307.343 15 307.077 15C306.811 15 306.596 14.9177 306.431 14.753C306.266 14.5757 306.184 14.354 306.184 14.088V5.956C306.184 5.70267 306.266 5.48733 306.431 5.31C306.608 5.13267 306.824 5.044 307.077 5.044C307.343 5.044 307.558 5.13267 307.723 5.31C307.9 5.48733 307.989 5.70267 307.989 5.956V6.621C308.318 6.11433 308.774 5.69 309.357 5.348C309.952 4.99333 310.586 4.816 311.257 4.816ZM325.447 0.94C325.713 0.94 325.929 1.02867 326.093 1.206C326.271 1.37067 326.359 1.586 326.359 1.852V14.088C326.359 14.3413 326.271 14.5567 326.093 14.734C325.929 14.9113 325.713 15 325.447 15C325.181 15 324.966 14.9177 324.801 14.753C324.637 14.5757 324.554 14.354 324.554 14.088V13.556C324.238 14.012 323.788 14.3983 323.205 14.715C322.635 15.0317 322.021 15.19 321.362 15.19C320.501 15.19 319.722 14.9683 319.025 14.525C318.329 14.0817 317.778 13.4673 317.372 12.682C316.967 11.884 316.764 10.991 316.764 10.003C316.764 9.015 316.961 8.12833 317.353 7.343C317.759 6.545 318.31 5.92433 319.006 5.481C319.703 5.03767 320.469 4.816 321.305 4.816C321.977 4.816 322.597 4.95533 323.167 5.234C323.737 5.51267 324.2 5.87367 324.554 6.317V1.852C324.554 1.586 324.637 1.37067 324.801 1.206C324.966 1.02867 325.181 0.94 325.447 0.94ZM321.571 13.518C322.167 13.518 322.692 13.366 323.148 13.062C323.617 12.758 323.978 12.34 324.231 11.808C324.497 11.276 324.63 10.6743 324.63 10.003C324.63 9.34433 324.497 8.749 324.231 8.217C323.978 7.67233 323.617 7.248 323.148 6.944C322.692 6.64 322.167 6.488 321.571 6.488C320.976 6.488 320.444 6.64 319.975 6.944C319.519 7.248 319.158 7.67233 318.892 8.217C318.639 8.749 318.512 9.34433 318.512 10.003C318.512 10.6743 318.639 11.276 318.892 11.808C319.158 12.34 319.519 12.758 319.975 13.062C320.444 13.366 320.976 13.518 321.571 13.518ZM338.467 10.022C338.467 11.01 338.246 11.8967 337.802 12.682C337.359 13.4673 336.751 14.0817 335.978 14.525C335.218 14.9683 334.376 15.19 333.451 15.19C332.527 15.19 331.678 14.9683 330.905 14.525C330.145 14.0817 329.544 13.4673 329.1 12.682C328.657 11.8967 328.435 11.01 328.435 10.022C328.435 9.034 328.657 8.141 329.1 7.343C329.544 6.545 330.145 5.92433 330.905 5.481C331.678 5.03767 332.527 4.816 333.451 4.816C334.376 4.816 335.218 5.03767 335.978 5.481C336.751 5.92433 337.359 6.545 337.802 7.343C338.246 8.141 338.467 9.034 338.467 10.022ZM336.662 10.022C336.662 9.338 336.517 8.73 336.225 8.198C335.947 7.65333 335.56 7.23533 335.066 6.944C334.585 6.64 334.047 6.488 333.451 6.488C332.856 6.488 332.311 6.64 331.817 6.944C331.336 7.23533 330.95 7.65333 330.658 8.198C330.38 8.73 330.24 9.338 330.24 10.022C330.24 10.6933 330.38 11.295 330.658 11.827C330.95 12.359 331.336 12.777 331.817 13.081C332.311 13.3723 332.856 13.518 333.451 13.518C334.047 13.518 334.585 13.3723 335.066 13.081C335.56 12.777 335.947 12.359 336.225 11.827C336.517 11.295 336.662 10.6933 336.662 10.022ZM345.639 4.816C347.919 4.816 349.059 6.184 349.059 8.92V14.088C349.059 14.3413 348.97 14.5567 348.793 14.734C348.628 14.9113 348.413 15 348.147 15C347.893 15 347.678 14.9113 347.501 14.734C347.336 14.5567 347.254 14.3413 347.254 14.088V8.939C347.254 8.19167 347.083 7.59633 346.741 7.153C346.399 6.70967 345.841 6.488 345.069 6.488C344.562 6.488 344.1 6.602 343.682 6.83C343.276 7.04533 342.953 7.343 342.713 7.723C342.485 8.09033 342.371 8.49567 342.371 8.939V14.088C342.371 14.3413 342.282 14.5567 342.105 14.734C341.94 14.9113 341.725 15 341.459 15C341.193 15 340.977 14.9177 340.813 14.753C340.648 14.5757 340.566 14.354 340.566 14.088V5.956C340.566 5.70267 340.648 5.48733 340.813 5.31C340.99 5.13267 341.205 5.044 341.459 5.044C341.725 5.044 341.94 5.13267 342.105 5.31C342.282 5.48733 342.371 5.70267 342.371 5.956V6.621C342.7 6.11433 343.156 5.69 343.739 5.348C344.334 4.99333 344.967 4.816 345.639 4.816ZM360.494 9.642C360.482 9.87 360.387 10.0663 360.209 10.231C360.032 10.383 359.823 10.459 359.582 10.459H352.894C352.983 11.3837 353.331 12.1247 353.939 12.682C354.56 13.2393 355.314 13.518 356.2 13.518C356.808 13.518 357.302 13.4293 357.682 13.252C358.062 13.0747 358.398 12.8467 358.689 12.568C358.879 12.454 359.063 12.397 359.24 12.397C359.456 12.397 359.633 12.473 359.772 12.625C359.924 12.777 360 12.9543 360 13.157C360 13.423 359.874 13.6637 359.62 13.879C359.253 14.2463 358.765 14.5567 358.157 14.81C357.549 15.0633 356.929 15.19 356.295 15.19C355.269 15.19 354.364 14.9747 353.578 14.544C352.806 14.1133 352.204 13.5117 351.773 12.739C351.355 11.9663 351.146 11.0923 351.146 10.117C351.146 9.053 351.362 8.122 351.792 7.324C352.236 6.51333 352.812 5.89267 353.521 5.462C354.243 5.03133 355.016 4.816 355.839 4.816C356.65 4.816 357.41 5.025 358.119 5.443C358.829 5.861 359.399 6.43733 359.829 7.172C360.26 7.90667 360.482 8.73 360.494 9.642ZM355.839 6.488C355.13 6.488 354.516 6.69067 353.996 7.096C353.477 7.48867 353.135 8.103 352.97 8.939H358.575V8.787C358.512 8.11567 358.208 7.56467 357.663 7.134C357.131 6.70333 356.523 6.488 355.839 6.488ZM362.02 13.442C361.906 13.2647 361.849 13.0937 361.849 12.929C361.849 12.6757 361.982 12.4603 362.248 12.283C362.375 12.1943 362.521 12.15 362.685 12.15C362.913 12.15 363.122 12.245 363.312 12.435C363.692 12.8657 364.098 13.1887 364.528 13.404C364.972 13.6193 365.497 13.727 366.105 13.727C366.587 13.7143 367.011 13.6067 367.378 13.404C367.746 13.1887 367.929 12.8467 367.929 12.378C367.929 11.9473 367.739 11.618 367.359 11.39C366.992 11.162 366.447 10.953 365.725 10.763C365.016 10.573 364.427 10.3767 363.958 10.174C363.49 9.95867 363.091 9.65467 362.761 9.262C362.445 8.85667 362.286 8.331 362.286 7.685C362.286 7.115 362.445 6.61467 362.761 6.184C363.091 5.75333 363.521 5.41767 364.053 5.177C364.598 4.93633 365.187 4.816 365.82 4.816C366.428 4.816 367.03 4.93 367.625 5.158C368.233 5.386 368.727 5.73433 369.107 6.203C369.259 6.38033 369.335 6.564 369.335 6.754C369.335 6.95667 369.234 7.153 369.031 7.343C368.905 7.457 368.746 7.514 368.556 7.514C368.328 7.514 368.145 7.438 368.005 7.286C367.739 6.982 367.41 6.74767 367.017 6.583C366.637 6.41833 366.213 6.336 365.744 6.336C365.263 6.336 364.851 6.43733 364.509 6.64C364.18 6.83 364.015 7.15933 364.015 7.628C364.028 8.07133 364.218 8.40067 364.585 8.616C364.965 8.83133 365.542 9.04033 366.314 9.243C366.986 9.42033 367.543 9.61033 367.986 9.813C368.43 10.0157 368.803 10.3197 369.107 10.725C369.411 11.1177 369.563 11.637 369.563 12.283C369.563 12.8783 369.392 13.3977 369.05 13.841C368.708 14.2717 368.259 14.6073 367.701 14.848C367.157 15.076 366.574 15.19 365.953 15.19C365.155 15.19 364.414 15.0507 363.73 14.772C363.059 14.4933 362.489 14.05 362.02 13.442ZM373.355 14.088C373.355 14.3413 373.266 14.5567 373.089 14.734C372.924 14.9113 372.709 15 372.443 15C372.19 15 371.974 14.9113 371.797 14.734C371.632 14.5567 371.55 14.3413 371.55 14.088V5.861C371.55 5.60767 371.632 5.39233 371.797 5.215C371.974 5.03767 372.19 4.949 372.443 4.949C372.709 4.949 372.924 5.03767 373.089 5.215C373.266 5.39233 373.355 5.60767 373.355 5.861V14.088ZM372.443 3.695C372.076 3.695 371.81 3.63167 371.645 3.505C371.493 3.36567 371.417 3.15033 371.417 2.859V2.555C371.417 2.251 371.499 2.03567 371.664 1.909C371.841 1.78233 372.107 1.719 372.462 1.719C372.817 1.719 373.07 1.78867 373.222 1.928C373.387 2.05467 373.469 2.26367 373.469 2.555V2.859C373.469 3.163 373.387 3.37833 373.222 3.505C373.057 3.63167 372.798 3.695 372.443 3.695ZM384.025 4.911C384.291 4.911 384.506 4.99967 384.671 5.177C384.848 5.34167 384.937 5.56333 384.937 5.842V14.088C384.937 14.3413 384.848 14.5567 384.671 14.734C384.506 14.9113 384.291 15 384.025 15C383.759 15 383.543 14.9177 383.379 14.753C383.214 14.5757 383.132 14.354 383.132 14.088V13.594C382.802 14.0373 382.353 14.4173 381.783 14.734C381.213 15.038 380.598 15.19 379.94 15.19C379.078 15.19 378.293 14.9683 377.584 14.525C376.887 14.0817 376.336 13.4673 375.931 12.682C375.538 11.884 375.342 10.991 375.342 10.003C375.342 9.015 375.538 8.12833 375.931 7.343C376.336 6.545 376.887 5.92433 377.584 5.481C378.28 5.03767 379.047 4.816 379.883 4.816C380.554 4.816 381.175 4.95533 381.745 5.234C382.327 5.51267 382.79 5.86733 383.132 6.298V5.842C383.132 5.576 383.214 5.35433 383.379 5.177C383.543 4.99967 383.759 4.911 384.025 4.911ZM380.149 13.518C380.744 13.518 381.27 13.366 381.726 13.062C382.194 12.758 382.555 12.34 382.809 11.808C383.075 11.276 383.208 10.6743 383.208 10.003C383.208 9.34433 383.075 8.749 382.809 8.217C382.555 7.685 382.194 7.267 381.726 6.963C381.27 6.64633 380.744 6.488 380.149 6.488C379.553 6.488 379.021 6.64 378.553 6.944C378.097 7.248 377.736 7.666 377.47 8.198C377.216 8.73 377.09 9.33167 377.09 10.003C377.09 10.6743 377.216 11.276 377.47 11.808C377.736 12.34 378.097 12.758 378.553 13.062C379.021 13.366 379.553 13.518 380.149 13.518ZM388.494 11.01C388.14 11.01 387.95 10.8073 387.924 10.402L387.506 2.84C387.481 2.51067 387.557 2.23833 387.734 2.023C387.924 1.80767 388.171 1.7 388.475 1.7C388.792 1.7 389.039 1.80767 389.216 2.023C389.394 2.23833 389.47 2.51067 389.444 2.84L389.045 10.402C389.033 10.6047 388.976 10.7567 388.874 10.858C388.786 10.9593 388.659 11.01 388.494 11.01ZM388.38 15C388.076 15 387.842 14.9177 387.677 14.753C387.525 14.5757 387.449 14.335 387.449 14.031V13.67C387.449 13.366 387.525 13.1317 387.677 12.967C387.842 12.7897 388.076 12.701 388.38 12.701H388.589C388.893 12.701 389.121 12.7897 389.273 12.967C389.438 13.1317 389.52 13.366 389.52 13.67V14.031C389.52 14.335 389.438 14.5757 389.273 14.753C389.121 14.9177 388.893 15 388.589 15H388.38Z" fill="black"/>
</g>
<defs>
<filter id="filter0_d" x="0.608032" y="0.939941" width="391.912" height="20.86" filterUnits="userSpaceOnUse" color-interpolation-filters="sRGB">
<feFlood flood-opacity="0" result="BackgroundImageFix"/>
<feColorMatrix in="SourceAlpha" type="matrix" values="0 0 0 0 0 0 0 0 0 0 0 0 0 0 0 0 0 0 127 0"/>
<feOffset dx="2" dy="2"/>
<feGaussianBlur stdDeviation="0.5"/>
<feColorMatrix type="matrix" values="0 0 0 0 0 0 0 0 0 0 0 0 0 0 0 0 0 0 0.25 0"/>
<feBlend mode="normal" in2="BackgroundImageFix" result="effect1_dropShadow"/>
<feBlend mode="normal" in="SourceGraphic" in2="effect1_dropShadow" result="shape"/>
</filter>
</defs>
</svg>
