<svg width="44" height="35" viewBox="0 0 44 35" fill="none" xmlns="http://www.w3.org/2000/svg">
<path d="M43.0538 4.15164C41.4705 4.85321 39.7697 5.32725 37.9816 5.54151C39.8266 4.43756 41.2069 2.70008 41.8649 0.653256C40.1316 1.68284 38.2345 2.40756 36.2561 2.7959C34.9258 1.37543 33.1637 0.433922 31.2434 0.117546C29.3231 -0.198829 27.352 0.127629 25.6363 1.04624C23.9206 1.96484 22.5561 3.42421 21.7547 5.19775C20.9534 6.97129 20.76 8.95978 21.2046 10.8545C17.6923 10.6782 14.2564 9.76526 11.1198 8.17507C7.98318 6.58488 5.21599 4.35294 2.9978 1.62408C2.23934 2.93242 1.80323 4.44933 1.80323 6.06485C1.80239 7.51918 2.16053 8.95124 2.84588 10.234C3.53123 11.5167 4.52261 12.6104 5.73204 13.4181C4.32942 13.3735 2.95774 12.9945 1.73118 12.3126V12.4264C1.73104 14.4662 2.43661 16.4432 3.72816 18.0219C5.01972 19.6007 6.81772 20.684 8.81706 21.088C7.5159 21.4401 6.15173 21.492 4.82758 21.2397C5.39168 22.9948 6.49049 24.5295 7.97018 25.6291C9.44988 26.7287 11.2364 27.338 13.0796 27.3718C9.95064 29.8281 6.0864 31.1605 2.10851 31.1546C1.40387 31.1548 0.699821 31.1136 0 31.0314C4.03779 33.6275 8.73807 35.0053 13.5385 35C29.7884 35 38.6718 21.5412 38.6718 9.86851C38.6718 9.48928 38.6623 9.10626 38.6453 8.72703C40.3732 7.47742 41.8648 5.93002 43.05 4.15733L43.0538 4.15164V4.15164Z" fill="black" fill-opacity="0.7"/>
</svg>
